<?xml version="1.0" encoding="UTF-8" standalone="no"?>
<svg width="553px" height="313px" viewBox="0 0 553 313" version="1.1" xmlns="http://www.w3.org/2000/svg" xmlns:xlink="http://www.w3.org/1999/xlink">
    <!-- Generator: Sketch 3.7.2 (28276) - http://www.bohemiancoding.com/sketch -->
    <title>names</title>
    <desc>Created with Sketch.</desc>
    <defs></defs>
    <g id="Page-1" stroke="none" stroke-width="1" fill="none" fill-rule="evenodd">
        <g id="Style" transform="translate(-210.000000, -195.000000)">
            <g id="Group-2" transform="translate(72.000000, 123.000000)">
                <g id="names" transform="translate(137.000000, 72.000000)">
                    <g id="Anya" transform="translate(0.797414, 0.580705)" fill="#3E595C">
                        <path d="M69.5927217,24.7938972 C66.0909484,36.0444761 61.7389933,49.2009288 56.4358102,62.3608657 C60.4672049,62.1448434 64.6031302,61.7232516 68.7460243,61.1936486 C68.6380094,58.1170735 68.6380094,54.9324872 68.6380094,51.8559121 C68.6380094,41.8805614 68.9550854,32.5393406 69.5927217,24.7938972 M92.1957104,58.6466764 C88.9064825,59.2808063 82.6451027,60.7685725 75.1119346,62.1448434 L75.1119346,64.3782349 C75.1119346,83.4752998 76.5962684,102.68386 80.6311475,115.314194 C80.6311475,115.735786 79.9900268,115.948324 79.3558748,115.948324 C78.7182385,115.948324 77.871541,115.735786 77.6555112,115.206183 C72.0317678,104.913767 69.3801763,84.008387 68.7460243,63.3155447 C64.4985997,63.9496746 59.9375835,64.5872887 55.3730829,64.9078378 C42.6377779,95.3600085 24.8083509,124.226855 1.57121027,124.226855 L0.613013587,122.52655 C23.8536386,122.52655 41.3625052,94.6213518 53.8852648,65.0088805 C51.8713096,65.1203759 49.85387,65.1203759 47.9444454,65.1203759 C27.7805028,65.1203759 20.3518653,57.3714482 20.3518653,50.1556078 C20.3518653,43.7899195 25.9756087,37.845823 33.7248066,37.845823 C39.2405351,37.845823 46.8817181,41.3474742 52.400931,49.8385429 L51.766779,51.0057599 C46.4566272,42.7272293 39.34855,39.542643 34.4669735,39.542643 C28.7352151,39.542643 24.8083509,43.5738972 24.8083509,48.2462497 C24.8083509,54.7199492 32.2369885,62.3608657 53.0385674,62.3608657 L54.947992,62.3608657 C61.5299322,46.5494297 66.6205698,30.4174445 70.3348886,18.1076597 C72.0317678,6.01041299 75.5370255,5.26827199 79.3558748,5.26827199 C77.4464501,15.9857636 75.32448,37.845823 75.1119346,60.2354853 C80.735678,59.2808063 85.9343306,58.1170735 90.4988311,57.1589102 C90.6033617,57.1589102 92.1957104,58.6466764 92.1957104,58.6466764" id="Fill-1"></path>
                        <path d="M88.3793001,96.2122512 L88.3793001,97.8045443 C87.7416637,98.0170824 87.1075118,98.1216093 86.574406,98.1216093 C85.0900722,98.1216093 83.9228144,97.3794683 83.9228144,95.891702 C84.4524359,89.7385518 84.9820573,83.6899284 84.9820573,77.641305 C84.9820573,73.3940286 84.6649813,69.1502364 84.1318755,65.0109711 C84.8775268,64.6939061 85.6196936,64.5893792 86.25733,64.5893792 C88.0587397,64.5893792 89.4420273,65.540574 89.4420273,67.3454052 C89.4420273,70.4254646 88.5918455,79.2335981 88.3793001,85.0696835 C89.9716488,80.4008152 92.4106949,65.4395314 100.055362,65.4395314 C104.086757,65.4395314 105.254015,68.3035685 105.254015,71.5926816 C105.254015,79.2335981 102.811484,87.7176983 102.811484,92.7071158 C102.811484,95.5711529 103.553651,97.2749414 105.996182,97.2749414 C111.940485,97.2749414 114.379532,83.6899284 114.588593,79.9757391 L115.334244,79.9757391 C114.804622,85.8153087 112.574637,99.2888263 104.933454,99.2888263 C101.644227,99.2888263 98.4630135,96.3167781 98.4630135,90.6932308 C98.4630135,85.4947596 100.159893,75.3068709 100.159893,70.1083996 C100.159893,67.8750082 99.5222564,66.9238134 98.4630135,66.9238134 C93.7939824,66.9238134 88.3793001,85.8153087 88.3793001,96.2122512" id="Fill-3"></path>
                        <path d="M131.358428,84.4324178 C132.630217,79.8680764 133.267853,74.9866701 133.267853,71.4850189 C133.267853,68.0913788 132.947293,66.4990857 132.630217,66.4990857 C131.996065,66.4990857 131.250413,71.0599429 131.250413,79.0214085 C131.250413,80.8262397 131.250413,82.6275866 131.358428,84.4324178 L131.358428,84.4324178 Z M127.961186,107.142629 C121.38273,114.35847 114.696259,123.267646 114.696259,135.260366 C114.696259,140.991924 116.497669,144.173026 118.727654,144.173026 C122.654518,144.173026 127.961186,134.626236 127.961186,112.128563 L127.961186,107.142629 Z M132.100595,64.2691785 C133.267853,64.2691785 134.118035,66.2865477 134.118035,70.638351 C134.118035,75.1992082 133.267853,81.3558427 131.462959,86.662325 C131.675504,91.4357202 132.205126,96.3171265 132.421156,100.881468 C135.180762,98.0139466 137.515278,95.4704586 138.891596,92.9234865 C140.804505,89.3103399 141.971763,84.6449558 142.288839,79.9760876 L143.03449,79.9760876 C142.71393,84.752967 141.651203,89.6308891 139.849793,93.3485625 C138.466506,96.1045885 135.710383,99.0766367 132.525686,102.362266 C132.738232,104.595657 132.738232,106.717553 132.738232,108.734922 C132.738232,134.734247 124.351397,146.19388 118.410578,146.19388 C115.016819,146.19388 112.466274,142.580733 112.466274,135.89798 C112.466274,122.637 120.424533,113.191253 127.853171,105.550336 C127.853171,104.066054 127.536095,94.6203065 127.536095,94.6203065 C125.62667,97.0592675 123.400169,98.5470338 120.849624,98.5470338 C114.379183,98.5470338 112.891365,89.2092972 112.891365,80.7182286 C112.891365,74.666121 113.633532,68.9380468 113.954092,67.3457536 C114.271168,65.5409224 115.863517,64.4782323 117.776426,64.4782323 C118.410578,64.4782323 119.152745,64.5897276 119.894912,64.9067926 C119.473305,66.4990857 117.776426,76.7915013 117.776426,85.2825699 C117.776426,91.644774 118.727654,97.0592675 121.912351,97.0592675 C124.034321,97.0592675 125.943746,95.6829967 127.431564,93.4530894 C127.327034,89.2092972 127.219019,85.0700319 127.219019,80.9272824 C127.219019,70.7393937 130.083156,64.2691785 132.100595,64.2691785 L132.100595,64.2691785 Z" id="Fill-5"></path>
                        <path d="M155.769447,85.7048586 C155.981992,82.5202724 156.407083,79.4436972 156.511614,76.5796601 C156.295584,71.2696935 154.814735,66.8168475 152.264189,66.8168475 C147.170067,66.8168475 144.2014,78.4925024 144.2014,87.4016787 C144.2014,92.9206991 145.368658,97.3805135 147.915719,97.3805135 C151.947113,97.3805135 154.602189,91.96602 155.769447,85.7048586 M156.720675,70.1059607 C157.253781,69.9979495 157.783402,69.8934226 158.313024,69.8934226 C160.117918,69.8934226 161.501205,70.8481017 161.501205,72.6529328 C161.501205,76.0500571 159.905372,85.2832668 159.905372,91.223879 C159.905372,94.8300571 161.07263,97.2725024 163.198085,97.2725024 C169.138904,97.2725024 171.581434,83.6909737 171.79398,79.9733002 L172.536147,79.9733002 C172.003041,85.8128698 169.77654,99.2863874 162.135357,99.2863874 C158.846129,99.2863874 155.661432,96.3178234 155.661432,90.5862649 C153.856538,95.5721981 151.096932,99.2863874 147.490628,99.2863874 C141.441793,99.2863874 139.002747,93.8788623 139.002747,87.4016787 C139.002747,77.7468772 144.518476,65.6496304 152.055128,65.6496304 C154.281629,65.6496304 155.873978,67.4544616 156.720675,70.1059607" id="Fill-8"></path>
                        <path d="M257.3261,59.8114545 C255.629221,59.4943896 253.824327,59.2818516 251.914902,59.2818516 C249.576902,59.2818516 247.880023,59.3898627 246.608235,59.7069276 L246.503704,61.8288237 L247.775493,61.8288237 C251.277266,61.8288237 254.461963,61.0831985 257.3261,59.8114545 M251.489811,27.1293766 C247.458417,34.662282 247.670962,42.9408126 247.137856,51.1113321 L246.712765,58.4316994 C248.096053,58.4316994 249.576902,58.3271725 251.277266,58.3271725 C254.036872,58.3271725 256.583933,58.6477217 258.918449,59.0693135 C267.618875,54.2924341 272.712997,44.0035028 272.712997,33.4950649 C272.712997,17.896167 261.462025,1.76766605 233.980945,1.76766605 C199.172272,1.76766605 182.193027,25.3245455 182.193027,45.0661929 C182.193027,59.1738404 190.896937,71.2710872 208.085244,71.2710872 C221.987807,71.2710872 229.524459,64.058731 233.130763,58.5397106 C233.238778,58.5397106 233.876414,58.7487644 233.876414,58.8602597 C228.461732,70.1073544 216.576609,73.7135325 206.492895,73.7135325 C188.241862,73.7135325 178.158148,59.9194657 178.158148,44.3205677 C178.158148,23.8402635 195.562484,0.0708460111 234.723112,0.0708460111 C266.242556,0.0708460111 280.141634,16.6209388 280.141634,32.8609351 C280.141634,43.7874805 273.880254,54.5084564 262.524753,59.9194657 C274.625906,63.6336549 280.141634,73.3929833 280.141634,83.1592801 C280.141634,95.4690649 271.336678,107.883377 256.158842,107.883377 C251.06472,107.883377 246.075129,106.71616 241.514113,100.24246 C241.726658,99.817384 241.834673,99.0787273 242.151749,99.0787273 C242.364295,99.0787273 242.57684,99.1832542 242.893916,99.7128571 C246.291159,104.486252 250.430568,106.190041 254.991585,106.190041 C266.026526,106.190041 273.242618,93.5597069 273.242618,81.4589759 C273.242618,72.7588534 269.531784,64.1632579 260.615328,60.7661336 C256.479403,62.4664378 251.702357,63.4211169 246.395689,63.6336549 C246.075129,69.5777514 245.650038,74.9852764 244.803341,80.295243 C240.984491,103.639584 226.869383,120.088635 203.949318,120.088635 C189.72968,120.088635 179.963042,112.23518 179.963042,98.4376289 C179.963042,92.4970167 181.875951,86.4483933 186.436967,83.4763451 C186.544982,83.3718182 186.754043,83.3718182 186.862058,83.3718182 C187.179134,83.3718182 187.499695,83.4763451 187.499695,83.7968942 C183.25227,87.0860074 181.555391,91.9674137 181.555391,97.2738961 C181.555391,111.388512 190.680908,118.600868 203.416213,118.600868 C227.294474,118.600868 237.057627,99.3957922 238.012339,78.7029499 L238.754506,62.8915139 C237.482718,62.4664378 236.845082,61.8288237 236.845082,61.2992208 C236.845082,60.7661336 237.482718,60.2365306 238.967052,59.7069276 C239.179597,56.9474174 239.284128,54.4004453 239.604688,51.958 C241.409582,35.934026 245.761537,25.8541484 257.54213,19.2759221 C257.963737,19.063384 258.280813,18.850846 258.597888,18.850846 C258.918449,18.850846 259.130994,19.063384 259.130994,19.5964712 C255.629221,21.3978182 253.190175,23.9447904 251.489811,27.1293766" id="Fill-10"></path>
                        <path d="M300.523,85.7048586 C300.735546,82.5202724 301.160637,79.4436972 301.265167,76.5796601 C301.052622,71.2696935 299.568288,66.8168475 297.017743,66.8168475 C291.923621,66.8168475 288.954953,78.4925024 288.954953,87.4016787 C288.954953,92.9206991 290.122211,97.3805135 292.669272,97.3805135 C296.700667,97.3805135 299.352258,91.96602 300.523,85.7048586 M301.474228,70.1059607 C302.007334,69.9979495 302.536956,69.8934226 303.066577,69.8934226 C304.871471,69.8934226 306.254759,70.8481017 306.254759,72.6529328 C306.254759,76.0500571 304.658926,85.2832668 304.658926,91.223879 C304.658926,94.8300571 305.826183,97.2725024 307.951638,97.2725024 C313.892457,97.2725024 316.331503,83.6909737 316.547533,79.9733002 L317.2897,79.9733002 C316.756594,85.8128698 314.530094,99.2863874 306.888911,99.2863874 C303.599683,99.2863874 300.414985,96.3178234 300.414985,90.5862649 C298.610091,95.5721981 295.850485,99.2863874 292.244181,99.2863874 C286.195347,99.2863874 283.756301,93.8788623 283.756301,87.4016787 C283.756301,77.7468772 289.272029,65.6496304 296.808682,65.6496304 C299.035182,65.6496304 300.627531,67.4544616 301.474228,70.1059607" id="Fill-12"></path>
                        <path d="M316.018957,69.5767061 C313.259351,69.468695 311.137381,68.6220271 311.137381,65.6499788 C311.137381,64.1622126 312.092093,62.8904686 313.363881,62.8904686 C314.747169,62.8904686 315.802927,64.9078378 316.548579,67.984413 L317.290745,67.984413 C319.625261,67.984413 323.447595,67.242272 325.039943,67.242272 C328.646247,67.242272 329.496429,69.5767061 329.496429,72.5487544 C329.496429,76.4719974 325.144474,87.719092 325.144474,93.9837377 C325.144474,96.6352367 325.886641,98.335541 328.008611,98.335541 C329.708974,98.335541 331.830945,96.7432479 334.16546,93.2381124 C336.499976,89.6319343 337.454688,85.0675929 337.771764,79.9736486 L338.517415,79.9736486 C338.196855,84.963066 337.242143,90.1615373 335.012158,93.9837377 C332.148021,98.7571328 328.433702,101.199578 325.465034,101.199578 C321.642701,101.199578 320.367428,98.5445948 320.367428,94.8304056 C320.367428,87.506554 325.249004,75.8378675 325.249004,70.740439 C325.249004,69.681233 324.935413,69.1516301 324.189762,69.1516301 C321.750715,69.1516301 319.09564,69.5767061 316.865655,69.5767061 C317.186215,71.6986022 317.39876,74.1375633 317.39876,76.6845354 C317.39876,82.4195781 316.444048,88.6772553 314.106048,93.3461236 L313.15482,92.9210475 C315.593866,88.5692442 316.656593,82.0990289 316.656593,76.4719974 C316.656593,73.8204983 316.336033,71.4860642 316.018957,69.5767061" id="Fill-14"></path>
                        <path d="M348.916114,79.2332497 C348.386493,78.3830976 347.644326,77.9615058 346.581599,77.9615058 C345.518871,77.9615058 344.884719,78.4911087 344.884719,79.0207117 C344.884719,79.4457878 345.30981,79.8708638 346.264523,79.8708638 C347.219235,79.8708638 348.069417,79.6548416 348.916114,79.2332497 M341.170401,57.4777173 C348.599038,53.021387 351.89175,44.2132534 351.89175,38.2726412 C351.89175,34.8755169 350.829023,32.4330716 348.811584,32.4330716 C344.351614,32.4330716 342.233128,44.9553944 341.170401,57.4777173 M337.456082,59.1745373 C338.72787,41.6697655 341.808037,31.0533165 349.661765,31.0533165 C352.525902,31.0533165 354.010236,33.8128267 354.010236,37.739554 C354.010236,44.3177803 349.766296,54.0805929 341.06587,59.0700104 C340.640779,64.6935577 340.536249,70.317105 340.536249,74.5643814 C340.536249,77.3204074 340.640779,79.4457878 340.74531,80.8255429 C344.567643,69.045361 351.038084,63.7388787 355.072963,63.7388787 C357.194933,63.7388787 358.682752,65.2231607 358.682752,67.9826709 C358.682752,71.271784 355.81513,76.1531904 351.675721,78.7036468 C353.905706,81.0380809 354.435327,85.598938 354.435327,91.6475614 C354.435327,94.8321477 354.860418,97.2745929 357.299464,97.2745929 C358.999828,97.2745929 361.121798,96.7415058 363.456313,93.2398545 C365.790829,89.6301922 366.745541,85.0693351 367.066101,79.9753907 L367.808268,79.9753907 C367.487708,84.9648082 366.53648,90.1632794 364.306495,93.9819955 C361.442358,98.758875 357.724555,100.13863 354.755887,100.13863 C350.933554,100.13863 349.661765,97.4836468 349.661765,93.7694575 C349.661765,91.4350234 350.086856,88.0378991 350.086856,84.9648082 C350.086856,83.0519659 349.870826,81.2471347 349.341205,79.8708638 C348.278478,80.2959399 347.11122,80.5049937 345.943962,80.5049937 C344.247083,80.5049937 343.504916,79.7628527 343.504916,79.0207117 C343.504916,78.0625484 344.672174,77.0033425 346.902159,77.0033425 C348.386493,77.0033425 349.661765,77.3204074 350.724493,77.9615058 C352.950993,75.8361254 354.539858,72.5470122 354.539858,70.2125781 C354.539858,68.4077469 353.58863,67.4530679 352.205342,67.4530679 C349.024129,67.4530679 343.295855,72.8640772 341.06587,86.128541 L341.06587,97.8041959 C340.424749,98.016734 339.790597,98.1212609 339.260976,98.1212609 C337.776642,98.1212609 336.609384,97.3791199 336.609384,95.8913536 C336.609384,82.5188787 336.713915,70.6376542 337.351551,60.7668304 C334.696475,61.7249937 331.832338,62.2545967 328.435096,62.2545967 C317.295624,62.2545967 311.45585,55.6728861 311.45585,48.3525187 C311.45585,42.9415095 314.640548,37.1019399 321.327018,33.0706857 L321.964655,33.7082998 C316.549972,36.8928861 314.002911,41.8788193 314.002911,46.5476876 C314.002911,53.6590011 319.73467,60.2372275 330.452535,60.2372275 C333.107611,60.2372275 335.442127,59.8121514 337.456082,59.1745373" id="Fill-16"></path>
                        <path d="M380.540786,85.7048586 C380.753331,82.5202724 381.178422,79.4436972 381.282953,76.5796601 C381.070407,71.2696935 379.586074,66.8168475 377.035528,66.8168475 C371.941406,66.8168475 368.972739,78.4925024 368.972739,87.4016787 C368.972739,92.9206991 370.139996,97.3805135 372.687057,97.3805135 C376.718452,97.3805135 379.370044,91.96602 380.540786,85.7048586 M381.492014,70.1059607 C382.02512,69.9979495 382.554741,69.8934226 383.084362,69.8934226 C384.889257,69.8934226 386.272544,70.8481017 386.272544,72.6529328 C386.272544,76.0500571 384.676711,85.2832668 384.676711,91.223879 C384.676711,94.8300571 385.843969,97.2725024 387.969423,97.2725024 C393.910243,97.2725024 396.349289,83.6909737 396.565319,79.9733002 L397.307486,79.9733002 C396.77438,85.8128698 394.547879,99.2863874 386.906696,99.2863874 C383.617468,99.2863874 380.432771,96.3178234 380.432771,90.5862649 C378.627877,95.5721981 375.86827,99.2863874 372.261967,99.2863874 C366.213132,99.2863874 363.774086,93.8788623 363.774086,87.4016787 C363.774086,77.7468772 369.289815,65.6496304 376.826467,65.6496304 C379.052968,65.6496304 380.645316,67.4544616 381.492014,70.1059607" id="Fill-18"></path>
                        <path d="M413.226791,94.4088137 C413.226791,109.899701 423.735595,117.328079 435.937795,117.328079 C460.875299,117.328079 475.624559,94.5098564 475.624559,74.7751774 C475.624559,54.9324872 464.269057,46.3368917 452.599964,46.3368917 C441.561538,46.3368917 430.206036,53.9778082 427.76699,67.242272 C427.76699,67.242272 427.341899,67.45481 426.916808,67.45481 C426.599732,67.45481 426.279172,67.3433147 426.279172,66.712669 C428.934248,53.0196449 442.51625,44.3195224 455.35957,44.3195224 C468.195922,44.3195224 480.297075,52.915118 480.297075,73.8204983 C480.297075,94.6213518 463.530375,118.812361 435.087613,118.812361 C420.759959,118.812361 408.87832,110.324777 408.87832,92.7085095 C408.87832,85.2836152 410.571715,77.9597636 410.571715,70.1063091 C410.571715,67.8764019 409.937563,66.9217228 408.87832,66.9217228 C404.205805,66.9217228 398.794607,85.8132182 398.794607,96.2136449 L398.794607,97.805938 C398.160455,98.0149918 397.519334,98.1195187 396.989713,98.1195187 C395.505379,98.1195187 394.338121,97.380862 394.338121,95.8930957 C394.867743,89.7364612 395.400848,83.6913221 395.400848,77.6426987 C395.400848,73.3954223 395.080288,69.1516301 394.550667,65.0088805 C395.296318,64.6952998 396.035,64.5872887 396.672637,64.5872887 C398.477531,64.5872887 399.857334,65.5419677 399.857334,67.3433147 C399.857334,70.423374 399.007152,79.2349918 398.794607,85.0675929 C400.383471,80.3987247 402.829486,65.440925 410.467185,65.440925 C414.498579,65.440925 415.669322,68.3049622 415.669322,71.5905911 C415.669322,78.7019046 413.226791,88.248695 413.226791,94.4088137" id="Fill-20"></path>
                    </g>
                    <g id="Craig" transform="translate(134.965517, 152.709184)" fill="#3E595C">
                        <path d="M49.4016101,5.46615028 C65.9557644,5.46615028 73.2798714,19.4762393 73.2798714,33.5873711 C73.2798714,48.0190519 65.6352041,62.6632709 52.373762,62.6632709 C41.5478817,62.6632709 36.9868654,55.9805176 36.9868654,48.3396011 C36.9868654,38.6813154 44.1994732,27.5387477 55.237899,26.3715306 C55.7675204,26.3715306 55.9800659,26.4795417 55.9800659,26.6885955 C55.9800659,26.9011336 55.6629899,27.2216827 55.6629899,27.2216827 C46.2169128,29.0265139 39.8510024,39.3189295 39.8510024,48.1270631 C39.8510024,55.1303655 43.7778667,61.0709777 53.3284743,61.0709777 C63.7257794,61.0709777 69.9871592,48.0190519 69.9871592,34.7545881 C69.9871592,21.1730594 63.4087034,7.48351948 48.2343523,7.48351948 C21.80903,7.48351948 7.48486066,49.3988071 7.48486066,88.3455306 C7.48486066,135.884365 25.2062728,156.472681 41.3353362,156.472681 C54.6002626,156.472681 66.8024619,142.358065 66.8024619,117.738495 C66.8024619,101.714521 60.7571119,86.3281614 52.2657471,86.3281614 C44.1994732,86.3281614 32.6349103,97.7912783 30.5094559,123.257516 C30.5094559,123.257516 30.3003948,123.362043 30.0878493,123.362043 C29.5582279,123.362043 28.7080461,123.149505 28.7080461,121.982288 C30.9345468,95.136295 43.8823972,83.5686512 53.3284743,83.5686512 C64.2588852,83.5686512 71.2589475,99.1710334 71.2589475,115.829137 C71.2589475,143.100206 55.4469601,159.336718 38.7882752,159.336718 C20.0041359,159.336718 0.160753654,138.856414 0.160753654,90.5719536 C0.160753654,50.0364212 18.4117872,5.46615028 49.4016101,5.46615028" id="Fill-22"></path>
                        <path d="M72.7509469,69.6672701 C69.9913404,69.5627432 67.8693703,68.7125911 67.8693703,65.7405429 C67.8693703,64.2562609 68.8240826,62.9845169 70.095871,62.9845169 C71.4791585,62.9845169 72.5349171,64.9984019 73.2805683,68.074977 L74.0227352,68.074977 C76.3572507,68.074977 80.1795844,67.332836 81.7719331,67.332836 C85.378237,67.332836 86.2284188,69.6672701 86.2284188,72.6393184 C86.2284188,76.5660456 81.8764636,87.8131403 81.8764636,94.0743017 C81.8764636,96.729285 82.6186305,98.426105 84.7406006,98.426105 C86.4409642,98.426105 88.5629343,96.8338119 90.8974499,93.3321607 C93.2319654,89.7224983 94.1866778,85.1616412 94.5037537,80.0676968 L95.249405,80.0676968 C94.9288446,85.0571143 93.9741323,90.2555855 91.7441473,94.0743017 C88.8800103,98.8476968 85.1656915,101.290142 82.1935396,101.290142 C78.3746903,101.290142 77.102902,98.638643 77.102902,94.9244538 C77.102902,87.6006022 81.9809942,75.9284315 81.9809942,70.8344872 C81.9809942,69.7752813 81.6674025,69.2421941 80.9217513,69.2421941 C78.4827052,69.2421941 75.8276293,69.6672701 73.5976443,69.6672701 C73.9182046,71.7891662 74.1307501,74.2316115 74.1307501,76.7785837 C74.1307501,82.5101421 73.1760378,88.7678193 70.8380379,93.4366876 L69.8868099,93.0150957 C72.325856,88.6632924 73.3885832,82.1895929 73.3885832,76.5660456 C73.3885832,73.9110623 73.0680229,71.5766282 72.7509469,69.6672701" id="Fill-25"></path>
                        <path d="M107.985755,85.7971647 C108.198301,82.6125785 108.623392,79.5360033 108.727922,76.6719662 C108.515377,71.3654839 107.031043,66.9091536 104.480498,66.9091536 C99.3863756,66.9091536 96.4177081,78.5813243 96.4177081,87.4939848 C96.4177081,93.0130052 97.5849658,97.4728197 100.132027,97.4728197 C104.163422,97.4728197 106.815013,92.0583262 107.985755,85.7971647 M108.936983,70.1982668 C109.470089,70.0937399 109.999711,69.9857288 110.529332,69.9857288 C112.334226,69.9857288 113.717514,70.9404078 113.717514,72.745239 C113.717514,76.1423633 112.121681,85.3720887 112.121681,91.3161852 C112.121681,94.9223633 113.288938,97.3648085 115.414393,97.3648085 C121.355212,97.3648085 123.794258,83.7797955 124.010288,80.0656063 L124.752455,80.0656063 C124.219349,85.9051759 121.992849,99.3786935 114.351666,99.3786935 C111.062438,99.3786935 107.87774,96.4101295 107.87774,90.6785711 C106.072846,95.6679885 103.31324,99.3786935 99.706936,99.3786935 C93.6581016,99.3786935 91.2190555,93.9676842 91.2190555,87.4939848 C91.2190555,77.8391833 96.7347841,65.7419365 104.271437,65.7419365 C106.497937,65.7419365 108.090286,67.5467677 108.936983,70.1982668" id="Fill-27"></path>
                        <path d="M130.695365,46.8532286 C130.695365,48.9751247 129.420092,51.4175699 126.981046,51.4175699 C125.388698,51.4175699 124.538516,49.9298037 124.538516,48.3375106 C124.538516,46.2156145 125.813789,43.7766534 128.252835,43.7766534 C129.949714,43.7766534 130.695365,45.2609354 130.695365,46.8532286 M126.447941,84.0996479 C126.447941,91.7405644 127.510668,97.3641117 130.58735,97.3641117 C136.531654,97.3641117 138.9707,83.7825829 139.18673,80.0683937 L139.925412,80.0683937 C139.395791,85.904479 137.165806,99.3814809 129.524623,99.3814809 C123.904364,99.3814809 121.991455,91.1029503 121.991455,80.9150616 C121.991455,76.9883343 122.204,72.7445421 122.733622,68.5007499 C123.054182,66.0583046 124.855592,65.1036256 126.34341,65.1036256 C127.085577,65.1036256 127.719729,65.4241748 127.719729,65.8492508 C126.981046,72.1104122 126.447941,78.5806275 126.447941,84.0996479" id="Fill-29"></path>
                        <path d="M152.87396,84.6302961 C152.87396,84.6302961 153.19452,75.0800215 153.19452,74.3378805 C152.661414,70.0940883 151.386142,66.909502 149.159641,66.909502 C144.065519,66.909502 141.093367,78.5816727 141.093367,87.4943332 C141.093367,93.0133536 142.260625,97.4731681 144.81117,97.4731681 C149.159641,97.4731681 151.811233,91.4210605 152.87396,84.6302961 L152.87396,84.6302961 Z M152.769429,114.451821 L152.769429,107.232496 C146.082959,114.34381 139.501018,123.364482 139.501018,135.353717 C139.501018,140.6602 141.622989,144.269862 144.173534,144.269862 C147.884368,144.269862 152.553399,136.524419 152.769429,114.451821 L152.769429,114.451821 Z M167.835765,80.0659547 C167.518689,84.8428341 166.455962,89.7242404 164.654552,93.4384297 C163.271265,96.1979399 160.623158,99.061977 157.43846,102.246563 C157.542991,104.263932 157.542991,106.385829 157.542991,108.82479 C157.542991,134.824114 149.159641,146.283747 143.218822,146.283747 C139.821579,146.283747 137.271033,142.677569 137.271033,135.991331 C137.271033,122.618856 145.340792,113.28112 152.769429,105.535676 C152.769429,100.229194 152.769429,95.0307228 152.87396,89.7242404 C151.069066,95.2432609 148.204929,99.3790419 144.382595,99.3790419 C138.333761,99.3790419 135.894715,93.9680327 135.894715,87.4943332 C135.894715,77.8395317 141.413927,65.8468119 148.947096,65.742285 C151.069066,65.742285 152.553399,67.226567 153.511596,69.6690122 L153.828672,66.909502 C154.145748,65.3172089 155.529036,64.5750679 156.905355,64.5750679 C157.542991,64.5750679 158.285158,64.7876059 159.13534,65.212682 C157.542991,67.7561699 157.009885,78.6861996 157.009885,83.250541 C157.009885,89.4071755 157.330445,94.0760438 157.43846,100.758797 C160.090052,97.9992868 162.320037,95.4523147 163.696356,93.0133536 C165.60578,89.4071755 166.776523,84.734823 167.093599,80.0659547 L167.835765,80.0659547 Z" id="Fill-31"></path>
                        <path d="M222.595138,102.352484 C213.894712,99.3804356 204.978256,95.8787844 197.866695,95.8787844 C188.316087,95.8787844 184.284692,99.1678976 184.284692,102.669549 C184.284692,106.916825 189.908436,111.477682 198.399801,111.477682 C209.647287,111.477682 217.396485,108.084042 222.595138,102.352484 M177.385676,103.094625 C177.385676,98.2132186 183.542525,93.3318122 195.640194,93.3318122 C203.385908,93.3318122 213.574152,97.6836156 223.762396,100.972729 C228.751987,94.6035562 231.086503,85.7989069 231.720655,75.6110182 C232.358291,65.2105915 232.570836,59.5870442 233.313003,52.0506545 C234.800821,36.0266805 239.469853,25.946803 251.250445,19.3685766 C251.672052,19.1560386 251.992612,18.9435006 252.309688,18.9435006 C252.626764,18.9435006 252.83931,19.1560386 252.83931,19.6856416 C249.337536,21.4904727 246.89849,24.0374449 245.198127,27.2220312 C241.166732,34.7549365 241.379277,43.0334672 240.846171,51.2039866 C240.104005,62.2385432 239.999474,68.3951777 238.511656,77.2033113 C236.814777,87.7082649 232.887912,96.0913224 226.947093,101.927408 C232.250276,103.519701 237.452413,104.686918 242.229459,104.686918 C264.086796,104.686918 275.658328,83.1439236 275.658328,59.7995822 C275.658328,32.0999532 259.417765,1.86032059 225.034184,1.86032059 C190.228996,1.86032059 173.249751,25.4172 173.249751,45.1553633 C173.249751,59.266495 181.950177,71.3637417 199.145452,71.3637417 C213.04453,71.3637417 220.581183,64.1513855 224.187487,58.6323651 C224.292017,58.6323651 224.929653,58.8449032 224.929653,58.9494301 C219.518455,70.1965247 207.633332,73.806187 197.553103,73.806187 C179.298585,73.806187 169.218356,60.0121202 169.218356,44.4132223 C169.218356,23.932918 186.622692,0.160016327 225.779835,0.160016327 C264.194811,0.160016327 282.449329,29.9815414 282.449329,57.994751 C282.449329,82.8268586 268.013661,106.279211 240.63711,106.279211 C236.07261,106.279211 230.873957,105.003983 225.56729,103.307163 C218.563743,109.676335 208.905121,113.069976 197.124528,113.069976 C183.755071,113.069976 177.385676,108.084042 177.385676,103.094625" id="Fill-33"></path>
                        <path d="M294.4463,46.8532286 C294.4463,48.9751247 293.171027,51.4175699 290.731981,51.4175699 C289.139633,51.4175699 288.289451,49.9298037 288.289451,48.3375106 C288.289451,46.2156145 289.564724,43.7766534 292.00377,43.7766534 C293.700649,43.7766534 294.4463,45.2609354 294.4463,46.8532286 M290.198876,84.0996479 C290.198876,91.7405644 291.261603,97.3641117 294.338285,97.3641117 C300.282589,97.3641117 302.721635,83.7825829 302.937665,80.0683937 L303.676347,80.0683937 C303.146726,85.904479 300.916741,99.3814809 293.275558,99.3814809 C287.655299,99.3814809 285.74239,91.1029503 285.74239,80.9150616 C285.74239,76.9883343 285.954935,72.7445421 286.484557,68.5007499 C286.805117,66.0583046 288.606527,65.1036256 290.094345,65.1036256 C290.836512,65.1036256 291.470664,65.4241748 291.470664,65.8492508 C290.731981,72.1104122 290.198876,78.5806275 290.198876,84.0996479" id="Fill-36"></path>
                        <path d="M304.099696,83.9937273 C304.099696,91.4221058 306.751288,98.2128701 313.437758,98.2128701 C320.22876,98.2128701 323.517987,88.7706067 324.155624,80.067 L324.901275,80.067 C324.260154,89.8298126 320.65385,100.230239 312.270501,100.230239 C302.932438,100.230239 299.21812,92.9063878 299.21812,84.9484063 C299.21812,75.2901206 304.737333,64.5726289 312.483046,64.5726289 C316.40991,64.5726289 318.110274,68.0777644 318.110274,71.5794156 C318.110274,75.0775826 316.40991,78.582718 313.542289,78.582718 C312.057955,78.582718 311.103243,77.4155009 311.103243,76.0357458 C311.103243,74.2309147 312.695592,72.1090186 316.301895,71.7919536 C316.301895,71.7919536 316.40991,71.1508553 316.40991,70.4121985 C316.40991,68.7118942 315.880289,65.952384 312.695592,65.952384 C307.706,65.952384 304.099696,75.3981317 304.099696,83.9937273" id="Fill-38"></path>
                        <path d="M331.266837,79.1130178 C331.266837,79.5380939 331.691928,79.9631699 332.64664,79.9631699 C333.601353,79.9631699 334.451534,79.7506319 335.298232,79.3255558 C334.76861,78.4754037 334.026443,78.0503276 332.963716,78.0503276 C331.904473,78.0503276 331.266837,78.5834148 331.266837,79.1130178 M329.569958,30.2989547 C329.995049,30.2989547 330.099579,30.6160197 330.099579,30.9330846 C327.660533,47.9117377 327.130912,63.4061087 327.130912,76.1409696 L327.130912,80.917849 C330.949761,69.1376672 337.423686,63.8311848 341.455081,63.8311848 C343.577051,63.8311848 345.064869,65.318951 345.064869,68.0784612 C345.064869,71.3640902 342.200732,76.2454965 338.057838,78.7959529 C340.287823,81.130387 340.817445,85.6912442 340.817445,91.7398675 C340.817445,94.9244538 341.242536,97.3634148 343.681582,97.3634148 C345.381945,97.3634148 347.503915,96.8338119 349.838431,93.3321607 C352.172946,89.7224983 353.127659,85.1616412 353.448219,80.0676968 L354.190386,80.0676968 C353.869826,85.0571143 352.918598,90.2555855 350.688613,94.0743017 C347.824476,98.8511811 344.110157,100.230936 341.138005,100.230936 C337.315671,100.230936 336.043883,97.5759529 336.043883,93.8617636 C336.043883,91.5273295 336.468974,88.1302052 336.468974,85.0571143 C336.468974,83.144272 336.256428,81.3394408 335.723323,79.9631699 C334.66408,80.3847618 333.496822,80.5972998 332.329564,80.5972998 C330.629201,80.5972998 329.887034,79.8551588 329.887034,79.1130178 C329.887034,78.1583388 331.054292,77.0956486 333.284277,77.0956486 C334.76861,77.0956486 336.043883,77.4161978 337.10661,78.0503276 C339.333111,75.9284315 340.921975,72.6393184 340.921975,70.3048842 C340.921975,68.5000531 340.075278,67.545374 338.695475,67.545374 C335.406247,67.545374 329.569958,73.0643944 327.235442,86.0083091 C327.339973,90.4681236 327.447988,94.4993777 327.447988,97.896502 C326.810351,98.1090401 326.172715,98.213567 325.643094,98.213567 C324.15876,98.213567 322.991502,97.471426 322.991502,95.9836597 C322.991502,85.2661681 323.94273,50.1416449 327.130912,31.5706987 C327.130912,31.5706987 328.72326,30.2989547 329.569958,30.2989547" id="Fill-40"></path>
                        <path d="M370.428161,92.4834022 C374.24701,87.7065228 377.431708,80.1736174 377.431708,72.5327009 C377.431708,68.1808976 376.26445,66.0590015 374.672101,66.0590015 C372.12504,66.0590015 368.623267,72.003098 368.623267,83.6752686 C368.623267,86.9643818 369.260903,89.9364301 370.428161,92.4834022 M360.135387,46.8539254 C360.135387,48.9758215 358.860114,51.4147826 356.417583,51.4147826 C354.825235,51.4147826 353.978537,49.9305006 353.978537,48.3382074 C353.978537,46.2163113 355.25381,43.7773503 357.692856,43.7773503 C359.389735,43.7773503 360.135387,45.2616323 360.135387,46.8539254 M362.149342,97.8944115 C363.63716,97.8944115 365.334039,97.1522705 367.030918,95.8805265 C365.013479,92.5879291 363.846221,88.556675 363.846221,84.1003447 C363.846221,72.1076249 369.68251,64.7872575 374.034465,64.7872575 C376.58501,64.7872575 378.703496,67.4387566 378.703496,73.0623039 C378.703496,81.2328234 375.306253,88.6612019 370.957783,93.5460924 C374.884647,101.187009 383.267997,105.747866 391.971907,105.747866 C404.599197,105.747866 417.651578,95.8805265 417.651578,71.8950868 L417.651578,71.3654839 L418.60629,70.9404078 C418.710821,72.1076249 418.710821,73.170315 418.710821,74.229521 C418.710821,98.2149607 404.282121,108.294838 390.271543,108.294838 C381.250557,108.294838 372.337586,104.051046 367.452525,96.7271944 C365.229509,98.3194876 362.891509,99.2741666 360.773023,99.2741666 C355.678901,99.2741666 351.431476,94.1802223 351.431476,80.9157584 C351.431476,76.9890312 351.752037,72.745239 352.177128,68.5014468 C352.177128,66.1670126 354.295613,65.1043224 355.783432,65.1043224 C356.525598,65.1043224 357.15975,65.4213874 357.15975,65.8464635 C356.417583,72.1076249 355.887962,78.5813243 355.887962,84.1003447 C355.887962,94.0756954 358.647568,97.8944115 362.149342,97.8944115" id="Fill-42"></path>
                    </g>
                    <g id="and" transform="translate(216.896552, 110.188776)" fill="#90B398">
                        <path d="M14.4839849,46.5336345 C14.6616868,43.8472931 15.0205751,41.2515417 15.1111682,38.8334861 C14.9299819,34.3562505 13.6790997,30.5967662 11.5257704,30.5967662 C7.22956494,30.5967662 4.72431615,40.4432004 4.72431615,47.9656531 C4.72431615,52.6205844 5.7069033,56.3800686 7.86023257,56.3800686 C11.2574754,56.3800686 13.4979134,51.8157273 14.4839849,46.5336345 M15.2888701,33.3736976 C15.7348671,33.2831076 16.1843485,33.1925176 16.6303455,33.1925176 C18.1564915,33.1925176 19.3202649,33.9973748 19.3202649,35.5199833 C19.3202649,38.3875046 17.9753052,46.1747588 17.9753052,51.1885659 C17.9753052,54.2337829 18.9578923,56.2929629 20.7523334,56.2929629 C25.762831,56.2929629 27.8220827,44.8333302 28.003269,41.6975232 L28.6304523,41.6975232 C28.1844553,46.6207403 26.3029055,57.9932672 19.8533707,57.9932672 C17.0798268,57.9932672 14.3933918,55.4846215 14.3933918,50.6519944 C12.8707301,54.8609443 10.5431833,57.9932672 7.49786001,57.9932672 C2.3967693,57.9932672 0.334033171,53.4289258 0.334033171,47.9656531 C0.334033171,39.8195232 4.99261123,29.6142134 11.3515528,29.6142134 C13.2296183,29.6142134 14.5710937,31.1333377 15.2888701,33.3736976" id="Fill-44"></path>
                        <path d="M33.1036629,42.9521944 C31.4938924,46.5339829 30.4172278,50.2028772 30.4172278,53.0669143 C30.4172278,54.4989328 30.776116,55.3978642 31.6715944,55.3978642 C32.7447746,55.3978642 33.2848491,52.4432371 33.2848491,48.5931629 C33.2848491,46.6210887 33.194256,44.7430887 33.1036629,42.9521944 L33.1036629,42.9521944 Z M27.911979,42.8616045 C28.5356779,34.3565989 30.5078209,30.4159347 32.302262,30.4159347 C33.640253,30.4159347 34.9852127,32.6562946 35.7900979,36.6840646 C38.476533,32.4785989 41.6995582,29.4333818 44.7448815,29.4333818 C48.417388,29.4333818 49.4905683,31.5796675 49.4905683,34.8060646 C49.4905683,39.5481017 47.0724283,46.7116787 47.0724283,52.4432371 C47.0724283,54.8578085 47.6961272,56.2933113 49.755379,56.2933113 C54.7728453,56.2933113 56.8320971,44.8336787 57.009799,41.6978716 L57.6369823,41.6978716 C57.1875009,46.6210887 55.3094354,57.9936156 48.8599007,57.9936156 C46.0898412,57.9936156 43.3999218,55.4849699 43.3999218,50.7394486 C43.3999218,44.1159273 45.7274686,37.4924059 45.7274686,33.9106174 C45.7274686,32.2103132 45.1943628,31.1336861 43.581108,31.1336861 C41.2535612,31.1336861 38.3894242,33.9106174 35.9677999,37.6701017 C36.3301724,39.9069774 36.5984675,42.5933187 36.5984675,45.7256416 C36.5984675,52.0843614 35.166399,57.9936156 32.302262,57.9936156 C30.5078209,57.9936156 29.6994514,56.2933113 29.6994514,53.8752557 C29.6994514,50.7394486 30.9573023,46.1751072 33.0165541,41.7884616 C32.5670727,37.1335302 31.6715944,33.7294375 30.776116,33.7294375 C29.9712308,33.7294375 29.0757524,36.5934746 28.5356779,42.6839087 L27.911979,42.8616045 Z" id="Fill-46"></path>
                        <path d="M72.8573268,31.8496954 C79.1256753,23.7906712 82.3487005,11.4390757 82.3487005,5.26153581 C82.3487005,3.02117588 81.808626,1.76685306 81.0037408,1.76685306 C80.4671507,1.76685306 79.7528586,2.39401447 79.0315978,3.73892727 C76.526349,8.48096438 74.0211003,20.4806527 72.8573268,31.8496954 M68.4670439,42.9539365 C68.3799351,41.5184338 68.3799351,39.9087195 68.3799351,38.295521 L68.3799351,36.326931 C67.9304537,33.0134282 66.8572734,30.5953725 65.0663167,30.5953725 C60.7666269,30.5953725 58.2648624,40.4452909 58.2648624,47.9642594 C58.2648624,52.6191907 59.2474496,56.3821592 61.3972945,56.3821592 C65.6029069,56.3821592 67.9304537,49.5774579 68.4670439,42.9539365 M83.3312877,41.6996137 L83.958471,41.6996137 C83.512474,46.6228308 81.6309241,57.9918735 75.1848737,57.9918735 C71.8712553,57.9918735 69.8120036,53.5146378 68.9165252,47.0722965 C67.665643,52.8909607 64.8886148,57.9918735 61.0349219,57.9918735 C55.9373156,57.9918735 53.8745795,53.4275321 53.8745795,47.9642594 C53.8745795,39.8181295 58.5331575,29.6999254 64.8886148,29.6128197 C66.4983852,29.6128197 67.7527518,30.6859625 68.5611213,32.4768568 C69.3625222,20.4806527 72.4078455,7.8572872 77.2441255,2.66578442 C78.676194,1.0525859 80.0211537,0.334834508 81.0908496,0.334834508 C82.7041044,0.334834508 83.6866915,2.12572876 83.6866915,5.08035584 C83.6866915,11.8850571 80.0211537,24.5990126 72.7667337,33.0134282 C72.4078455,36.5952167 72.2266592,40.1770052 72.2266592,43.309328 C72.2266592,50.8317807 73.3033238,56.2915692 76.080352,56.2915692 C81.0908496,56.2915692 83.1535857,44.8319365 83.3312877,41.6996137" id="Fill-48"></path>
                    </g>
                </g>
            </g>
        </g>
    </g>
</svg>