<?xml version="1.0" encoding="UTF-8"?>
<svg width="451px" height="233px" viewBox="0 0 451 233" version="1.1" xmlns="http://www.w3.org/2000/svg" xmlns:xlink="http://www.w3.org/1999/xlink">
    <!-- Generator: Sketch 42 (36781) - http://www.bohemiancoding.com/sketch -->
    <title>names</title>
    <desc>Created with Sketch.</desc>
    <defs></defs>
    <g id="Page-1" stroke="none" stroke-width="1" fill="none" fill-rule="evenodd">
        <g id="names" transform="translate(-1.000000, 0.000000)">
            <path d="M133.3864,111.4976 C133.580801,109.359189 134.188295,108.144201 135.2089,107.8526 C136.229505,107.560999 137.201495,107.755397 138.1249,108.4358 C139.048305,109.116203 139.704398,110.136793 140.0932,111.4976 C140.482002,112.858407 140.141805,114.170594 139.0726,115.4342 C138.780999,115.823002 138.6352,116.236098 138.6352,116.6735 C138.6352,117.110902 138.246404,117.475399 137.4688,117.767 C136.302394,118.155802 135.038807,118.447399 133.678,118.6418 C132.317193,118.836201 131.029306,118.982 129.8143,119.0792 C128.599294,119.1764 127.505805,119.225 126.5338,119.225 L124.6384,119.225 C122.305588,119.030599 119.827013,118.447405 117.2026,117.4754 C114.578187,116.503395 112.585607,115.337007 111.2248,113.9762 C108.503186,111.448987 106.559206,108.071321 105.3928,103.8431 C104.226394,99.6148789 103.546001,94.9250258 103.3516,89.7734 C103.157199,84.6217742 103.351597,79.1786287 103.9348,73.4438 C104.518003,67.7089713 105.246996,62.0228282 106.1218,56.3852 C106.996604,50.7475718 107.871396,45.328726 108.7462,40.1285 C109.621004,34.928274 110.301398,30.2870204 110.7874,26.2046 C110.981801,25.2325951 111.151899,24.2606049 111.2977,23.2886 C111.443501,22.3165951 111.565,21.4904034 111.6622,20.81 L110.4958,21.9764 C110.301399,22.170801 110.131301,22.3894988 109.9855,22.6325 C109.839699,22.8755012 109.596702,23.2642973 109.2565,23.7989 C108.916298,24.3335027 108.406003,25.2325937 107.7256,26.4962 C107.239598,27.3710044 106.413406,29.2177859 105.247,32.0366 C104.080594,34.8554141 102.695508,38.2330803 101.0917,42.1697 C99.487892,46.1063197 97.7626092,50.4316764 95.9158,55.1459 C94.0689908,59.8601236 92.1979095,64.6228759 90.3025,69.4343 C88.4070905,74.2457241 86.5846087,78.9112774 84.835,83.4311 C83.0853913,87.9509226 81.5302068,91.9603825 80.1694,95.4596 C78.8085932,98.9588175 77.7151041,101.777589 76.8889,103.916 L75.6496,107.1236 C74.1915927,109.262011 72.8794058,110.695696 71.713,111.4247 C70.5465942,112.153704 69.5746039,112.348102 68.797,112.0079 C68.0193961,111.667698 67.3633027,110.865806 66.8287,109.6022 C66.2940973,108.338594 65.929601,106.73481 65.7352,104.7908 C65.4435985,102.74959 65.1763012,100.562612 64.9333,98.2298 C64.6902988,95.8969883 64.3744019,93.1754156 63.9856,90.065 C63.5967981,87.2461859 63.4024,84.4031143 63.4024,81.5357 C63.4024,78.6682857 63.3538005,75.9710126 63.2566,73.4438 C63.1593995,71.8885922 63.0622005,70.6979041 62.965,69.8717 C62.8677995,69.0454959 62.7706005,68.2679036 62.6734,67.5389 C62.5761995,66.8098964 62.4547007,65.9594049 62.3089,64.9874 C62.1630993,64.0153951 62.0416005,62.5574097 61.9444,60.6134 C58.4451825,67.806236 54.6787202,74.3914701 50.6449,80.3693 C46.6110798,86.3471299 42.5773202,91.5229781 38.5435,95.897 C34.5096798,100.271022 30.597419,103.697288 26.8066,106.1759 C23.015781,108.654512 19.6138151,109.990999 16.6006,110.1854 C15.6285951,110.2826 14.6566049,110.2826 13.6846,110.1854 L13.5388,110.1854 C13.0527976,110.1854 12.712601,110.1368 12.5182,110.0396 C11.2545937,109.9424 9.99100632,109.602203 8.7274,109.019 C7.46379368,108.435797 6.44320389,107.755404 5.6656,106.9778 C3.91599125,105.228191 2.7010034,103.235611 2.0206,101 C1.53459757,99.9307947 1.21870073,98.7644063 1.0729,97.5008 C0.927099271,96.2371937 0.902799514,95.0222058 1,93.8558 C1.09720049,92.3977927 1.63179514,90.6482102 2.6038,88.607 C3.57580486,86.5657898 4.45059611,85.0106053 5.2282,83.9414 C5.71420243,83.1637961 6.39459563,82.4105036 7.2694,81.6815 C8.14420437,80.9524964 9.11619465,80.3936019 10.1854,80.0048 C10.6714024,79.810399 11.2302968,79.6403007 11.8621,79.4945 C12.4939032,79.3486993 13.0041981,79.2272005 13.393,79.13 C13.9762029,79.0327995 14.5107976,79.081399 14.9968,79.2758 L16.4548,79.859 C17.5240053,80.3450024 18.3501971,81.1225947 18.9334,82.1918 C19.4194024,83.3582058 19.6138005,84.7189922 19.5166,86.2742 L19.0063,87.8051 C18.7632988,88.5341036 18.5932005,89.0929981 18.496,89.4818 C17.4267947,91.1342083 16.5763032,91.7174024 15.9445,91.2314 C15.3126968,90.7453976 14.6566034,89.7734073 13.9762,88.3154 C13.781799,87.9265981 13.6360005,87.5135022 13.5388,87.0761 C13.4415995,86.6386978 13.2472015,86.322801 12.9556,86.1284 C12.761199,86.0311995 12.6882998,85.7882019 12.7369,85.3994 C12.7855002,85.0105981 12.8826993,84.5975022 13.0285,84.1601 C13.1743007,83.7226978 13.2714998,83.3339017 13.3201,82.9937 C13.3687002,82.6534983 13.295801,82.4834 13.1014,82.4834 C11.9349942,82.677801 10.9873036,83.0665971 10.2583,83.6498 C9.52929636,84.2330029 8.8246034,84.9619956 8.1442,85.8368 C7.4637966,86.7116044 6.90490219,87.7078944 6.4675,88.8257 C6.03009781,89.9435056 5.76280049,91.1341937 5.6656,92.3978 C5.6656,93.4670053 5.81139854,94.3903961 6.103,95.168 C6.39460146,95.9456039 6.73479806,96.8689947 7.1236,97.9382 C7.41520146,99.0074053 7.82829733,99.8578968 8.3629,100.4897 C8.89750267,101.121503 9.55359611,101.777597 10.3312,102.458 C11.1088039,103.138403 11.7648973,103.624399 12.2995,103.916 C12.8341027,104.207601 13.6359947,104.450599 14.7052,104.645 C14.899601,104.5478 15.1911981,104.4992 15.58,104.4992 C16.3576039,104.304799 17.1351961,104.2076 17.9128,104.2076 C20.8288146,104.013199 24.1092818,102.725312 27.7543,100.3439 C31.3993182,97.9624881 35.1414808,94.6577211 38.9809,90.4295 C42.8203192,86.2012789 46.6596808,81.1469294 50.4991,75.2663 C54.3385192,69.3856706 57.959183,62.849036 61.3612,55.6562 L61.3612,49.0952 C61.3612,47.8315937 61.3854998,46.6409056 61.4341,45.5231 C61.4827002,44.4052944 61.507,43.4576039 61.507,42.68 C61.507,39.3751835 61.9443956,36.1676156 62.8192,33.0572 C63.6940044,29.9467844 64.836093,27.1523124 66.2455,24.6737 C67.654907,22.1950876 69.1857917,20.2025075 70.8382,18.6959 C72.4906083,17.1892925 74.0457927,16.436 75.5038,16.436 C76.9618073,16.436 77.9337976,17.2135922 78.4198,18.7688 C78.8086019,19.8380053 79.0515995,21.4660891 79.1488,23.6531 C79.2460005,25.8401109 78.9058039,28.1971874 78.1282,30.7244 C77.3505961,33.1544121 76.3300063,35.7544861 75.0664,38.5247 C73.8027937,41.2949139 72.0046117,44.7211796 69.6718,48.8036 C69.7690005,50.9420107 69.9390988,52.7644925 70.1821,54.2711 C70.4251012,55.7777075 70.643799,57.2599927 70.8382,58.718 C71.032601,60.1760073 71.2512988,61.6825922 71.4943,63.2378 C71.7373012,64.7930078 72.0045985,66.7369883 72.2962,69.0698 C72.5878015,71.9858146 72.7821995,74.6101883 72.8794,76.943 C72.9766005,79.2758117 73.2195981,81.7057874 73.6084,84.233 C74.0944024,87.9266185 74.434599,91.0369874 74.629,93.5642 C74.823401,96.0914126 75.017799,98.4727888 75.2122,100.7084 C75.9898039,98.7643903 77.180492,95.7026209 78.7843,91.523 C80.388108,87.3433791 82.2105898,82.653526 84.2518,77.4533 C86.2930102,72.253074 88.4313888,66.8342282 90.667,61.1966 C92.9026112,55.5589718 95.01669,50.2859245 97.0093,45.3773 C99.00191,40.4686755 100.751492,36.216218 102.2581,32.6198 C103.764708,29.023382 104.809597,26.6906053 105.3928,25.6214 C106.364805,23.7745908 107.458294,21.8306102 108.6733,19.7894 C109.888306,17.7481898 111.103294,15.9500078 112.3183,14.3948 C113.533306,12.8395922 114.626795,11.6732039 115.5988,10.8956 C116.570805,10.1179961 117.348397,10.0207971 117.9316,10.604 C118.417602,10.8956015 118.733499,11.3572968 118.8793,11.9891 C119.025101,12.6209032 119.0494,13.3012964 118.9522,14.0303 C118.855,14.7593036 118.733501,15.4882964 118.5877,16.2173 C118.441899,16.9463036 118.3204,17.6023971 118.2232,18.1856 C117.737198,22.2680204 117.081104,27.0550725 116.2549,32.5469 C115.428696,38.0387275 114.602504,43.8220696 113.7763,49.8971 C112.950096,55.9721304 112.269703,62.1685684 111.7351,68.4866 C111.200497,74.8046316 111.054699,80.7580721 111.2977,86.3471 C111.540701,91.9361279 112.221094,96.9661776 113.3389,101.4374 C114.456706,105.908622 116.327787,109.359188 118.9522,111.7892 C119.729804,112.566804 120.507396,113.320096 121.285,114.0491 C122.062604,114.778104 123.083194,115.336998 124.3468,115.7258 C125.221604,115.920201 126.266494,115.9931 127.4815,115.9445 C128.696506,115.8959 129.692796,115.9202 130.4704,116.0174 C130.664801,116.0174 130.932098,115.823002 131.2723,115.4342 C131.612502,115.045398 131.928399,114.608002 132.22,114.122 C132.511601,113.635998 132.778899,113.125703 133.0219,112.5911 C133.264901,112.056497 133.3864,111.692001 133.3864,111.4976 Z M69.526,44.7212 C71.1784083,42.4855888 72.4419956,39.9584141 73.3168,37.1396 C74.1916044,34.3207859 75.0177961,31.7450117 75.7954,29.4122 C76.5730039,27.0793883 77.0103995,25.2326068 77.1076,23.8718 C77.2048005,22.5109932 77.1076015,21.3446049 76.816,20.3726 C76.621599,19.8865976 76.4758005,19.6436 76.3786,19.6436 L75.5038,19.6436 C73.0737879,19.6436 71.3971046,21.247384 70.4737,24.455 C69.5502954,27.662616 69.1371995,32.3767689 69.2344,38.5976 C69.2344,39.6668053 69.2586998,40.6630954 69.3073,41.5865 C69.3559002,42.5099046 69.4287995,43.5547942 69.526,44.7212 Z M174.0646,60.905 C173.870199,62.4602078 173.675801,64.4041883 173.4814,66.737 C173.286999,69.0698117 173.092601,71.4997874 172.8982,74.027 C172.801,75.9710097 172.946798,78.3280861 173.3356,81.0983 C173.724402,83.8685139 174.015999,86.6629859 174.2104,89.4818 C174.3076,90.8426068 174.453399,91.8631966 174.6478,92.5436 C174.842201,93.2240034 175.133798,94.0501951 175.5226,95.0222 C176.008602,96.0914053 176.3002,97.0147961 176.3974,97.7924 C176.4946,98.5700039 177.077795,99.055999 178.147,99.2504 C179.216205,99.444801 180.090997,99.4691007 180.7714,99.3233 C181.451803,99.1774993 182.132197,98.8130029 182.8126,98.2298 C183.784605,97.4521961 184.975293,96.1400092 186.3847,94.2932 C187.794107,92.4463908 189.154893,90.4295109 190.4671,88.2425 C191.779307,86.0554891 192.969995,83.9171104 194.0392,81.8273 C195.108405,79.7374896 195.837398,78.1094058 196.2262,76.943 C196.712202,75.3877922 197.028099,74.4887012 197.1739,74.2457 C197.319701,74.0026988 197.586998,73.4438044 197.9758,72.569 C198.461802,71.2081932 199.020697,70.7221981 199.6525,71.111 C200.284303,71.4998019 200.697399,72.0343966 200.8918,72.7148 C200.502998,73.5896044 200.26,74.1727985 200.1628,74.4644 L199.288,77.0888 C198.704797,78.7412083 197.878605,80.7337883 196.8094,83.0666 C195.740195,85.3994117 194.549507,87.7321883 193.2373,90.065 C191.925093,92.3978117 190.564307,94.6333893 189.1549,96.7718 C187.745493,98.9102107 186.409006,100.611194 185.1454,101.8748 C184.756598,102.360802 184.246303,102.725299 183.6145,102.9683 C182.982697,103.211301 182.423802,103.429999 181.9378,103.6244 C181.257397,104.013202 180.601303,104.1833 179.9695,104.1347 C179.337697,104.0861 178.584404,103.964601 177.7096,103.7702 C175.76559,103.478599 174.283305,102.992603 173.2627,102.3122 C172.242095,101.631797 171.343004,100.514008 170.5654,98.9588 C170.079398,98.1811961 169.569103,97.2821051 169.0345,96.2615 C168.499897,95.2408949 168.086801,94.2932044 167.7952,93.4184 C167.017596,90.210784 166.458702,86.7602185 166.1185,83.0666 C165.778298,79.3729815 165.5596,76.0196151 165.4624,73.0064 C165.3652,70.3819869 165.438099,67.9034117 165.6811,65.5706 C165.924101,63.2377883 166.142799,61.6340044 166.3372,60.7592 C167.114804,56.4823786 167.770897,52.8860146 168.3055,49.97 C168.840103,47.0539854 169.374697,44.2838131 169.9093,41.6594 C170.443903,39.0349869 171.075696,36.3134141 171.8047,33.4946 C172.533704,30.6757859 173.481394,27.2738199 174.6478,23.2886 C175.619805,20.080984 177.053491,17.2622121 178.9489,14.8322 C180.844309,12.4021878 182.666791,9.92361264 184.4164,7.3964 C185.388405,5.93839271 186.676292,4.67480535 188.2801,3.6056 C189.883908,2.53639465 191.609191,1.71020292 193.456,1.127 C194.330804,0.932599028 195.108397,0.738200972 195.7888,0.5438 C196.469203,0.349399028 197.198196,0.2522 197.9758,0.2522 C198.656203,0.2522 199.287997,0.349399028 199.8712,0.5438 C202.301212,0.835401458 203.904996,2.09898882 204.6826,4.3346 C204.877001,4.91780292 205.095699,5.64679563 205.3387,6.5216 C205.581701,7.39640437 205.606001,8.31979514 205.4116,9.2918 C205.022798,11.1386092 204.463904,13.3741869 203.7349,15.9986 C203.005896,18.6230131 201.961007,21.1501879 200.6002,23.5802 C199.239393,26.1074126 197.684209,28.5373883 195.9346,30.8702 C194.184991,33.2030117 192.775605,35.0983927 191.7064,36.5564 C190.928796,37.7228058 190.126904,38.7676954 189.3007,39.6911 C188.474496,40.6145046 187.672604,41.6107947 186.895,42.68 C186.7978,42.874401 186.676301,43.0930988 186.5305,43.3361 C186.384699,43.5791012 186.2632,43.797799 186.166,43.9922 C185.874399,44.6726034 185.558502,45.1828983 185.2183,45.5231 C184.878098,45.8633017 184.513602,46.2763976 184.1248,46.7624 C182.375191,49.0952117 180.698508,50.9419932 179.0947,52.3028 C177.490892,53.6636068 176.154405,54.8299951 175.0852,55.802 C174.890799,56.6768044 174.720701,57.5515956 174.5749,58.4264 C174.429099,59.3012044 174.259001,60.1273961 174.0646,60.905 Z M177.1264,46.6166 C176.834799,47.6858053 176.6404,48.5119971 176.5432,49.0952 C176.446,49.6784029 176.251601,50.5531942 175.96,51.7196 C176.737604,50.9419961 177.539496,50.2373032 178.3657,49.6055 C179.191904,48.9736968 180.042396,48.1232053 180.9172,47.054 C182.278007,45.4015917 183.711692,43.4819109 185.2183,41.2949 C186.724908,39.1078891 188.352991,36.7508126 190.1026,34.2236 C190.977404,32.8627932 192.119493,31.1132107 193.5289,28.9748 C194.938307,26.8363893 196.323393,24.5522122 197.6842,22.1222 C199.045007,19.7893883 200.235695,17.4566117 201.2563,15.1238 C202.276905,12.7909883 202.981598,10.6526097 203.3704,8.7086 C203.564801,7.93099611 203.564801,7.29920243 203.3704,6.8132 L202.7872,5.3552 C202.398398,4.09159368 201.620806,3.31400146 200.4544,3.0224 C200.259999,2.92519951 200.089901,2.75510121 199.9441,2.5121 C199.798299,2.26909879 199.628201,2.1476 199.4338,2.1476 C198.656196,2.1476 197.927203,2.22049927 197.2468,2.3663 C196.566397,2.51210073 195.788804,2.82799757 194.914,3.314 C193.941995,3.89720292 192.970005,4.62619563 191.998,5.501 C191.025995,6.37580437 190.102604,7.44499368 189.2278,8.7086 C187.575392,11.1386121 186.141706,13.8844847 184.9267,16.9463 C183.711694,20.0081153 182.666804,23.0941844 181.792,26.2046 C181.111597,28.5374117 180.528402,30.8215888 180.0424,33.0572 C179.750799,34.1264053 179.507801,35.1712949 179.3134,36.1919 C179.118999,37.2125051 178.924601,38.1115961 178.7302,38.8892 C178.535799,39.9584053 178.292801,41.1247937 178.0012,42.3884 C177.709599,43.6520063 177.418001,45.0613922 177.1264,46.6166 Z M206.578,46.1792 C206.383599,45.8875985 206.2378,45.6203012 206.1406,45.3773 C206.0434,45.1342988 205.9948,44.7212029 205.9948,44.138 C205.9948,43.6519976 205.873301,43.0202039 205.6303,42.2426 C205.387299,41.4649961 205.362999,40.8332024 205.5574,40.3472 C206.335004,38.5003908 207.525692,37.3583022 209.1295,36.9209 C210.733308,36.4834978 212.215593,36.8965937 213.5764,38.1602 C213.868001,38.4518015 213.9652,38.694799 213.868,38.8892 C213.7708,39.083601 213.819399,39.4237976 214.0138,39.9098 L214.0138,41.222 C214.0138,41.416401 213.9652,41.5621995 213.868,41.6594 C213.187597,43.3118083 212.434304,44.8183932 211.6081,46.1792 C210.781896,47.5400068 209.494009,47.9774024 207.7444,47.4914 C207.452799,47.3941995 207.234101,47.1998015 207.0883,46.9082 C206.942499,46.6165985 206.772401,46.373601 206.578,46.1792 Z M293.4748,70.9652 C293.960802,70.9652 294.495397,71.0137995 295.0786,71.111 C295.661803,71.2082005 295.807601,71.6941956 295.516,72.569 C295.224399,73.0550024 294.981401,73.7110959 294.787,74.5373 C294.592599,75.3635041 294.155203,76.1653961 293.4748,76.943 C293.085998,77.4290024 292.721502,77.9878968 292.3813,78.6197 C292.041098,79.2515032 291.628002,79.7617981 291.142,80.1506 C290.364396,80.8310034 289.586804,81.4141976 288.8092,81.9002 C288.031596,82.3862024 287.399802,82.726399 286.9138,82.9208 C286.330597,83.0180005 285.917501,83.0908998 285.6745,83.1395 C285.431499,83.1881002 285.188501,83.2609995 284.9455,83.3582 C284.702499,83.4554005 284.362302,83.5282998 283.9249,83.5769 C283.487498,83.6255002 282.782805,83.6983995 281.8108,83.7956 C281.908,84.2816024 281.908,84.5974993 281.8108,84.7433 C281.7136,84.8891007 281.6164,85.2049976 281.5192,85.691 C281.324799,86.5658044 281.008902,87.5377947 280.5715,88.607 C280.134098,89.6762053 279.769601,90.5995961 279.478,91.3772 C279.283599,91.8632024 278.724705,92.5435956 277.8013,93.4184 C276.877895,94.2932044 275.881605,95.1922954 274.8124,96.1157 C273.743195,97.0391046 272.722605,97.8652964 271.7506,98.5943 L269.7094,100.1252 C268.931796,100.708403 267.716808,101.145799 266.0644,101.4374 C264.411992,101.729001 263.002606,101.8748 261.8362,101.8748 C259.89219,101.7776 258.118308,101.194405 256.5145,100.1252 C254.910692,99.0559947 253.720004,97.4522107 252.9424,95.3138 C252.650799,94.4389956 252.723698,93.4670053 253.1611,92.3978 C253.598502,91.3285947 254.060198,90.3080049 254.5462,89.336 C255.032202,88.0723937 256.077092,86.8088063 257.6809,85.5452 C259.284708,84.2815937 260.864192,83.4554019 262.4194,83.0666 C263.197004,82.9693995 264.096095,82.7264019 265.1167,82.3376 C266.137305,81.9487981 267.206494,81.5843017 268.3243,81.2441 C269.442106,80.9038983 270.486995,80.5880015 271.459,80.2964 C272.431005,80.0047985 273.208597,79.859 273.7918,79.859 C273.597399,79.1785966 273.427301,78.5468029 273.2815,77.9636 C273.135699,77.3803971 272.965601,76.7972029 272.7712,76.214 C272.576799,75.6307971 272.333801,75.0476029 272.0422,74.4644 C271.750599,73.8811971 271.507601,73.2980029 271.3132,72.7148 L268.2514,66.5912 C267.182195,64.6471903 266.210204,62.7032097 265.3354,60.7592 C264.266195,62.4116083 263.148406,64.5256871 261.982,67.1015 C260.815594,69.6773129 259.843604,71.8399913 259.066,73.5896 C258.871599,74.0756024 258.677201,74.6101971 258.4828,75.1934 C258.288399,75.7766029 257.948202,76.3597971 257.4622,76.943 C257.073398,77.4290024 256.708902,77.9878968 256.3687,78.6197 C256.028498,79.2515032 255.615402,79.7617981 255.1294,80.1506 C254.351796,80.8310034 253.574204,81.4141976 252.7966,81.9002 C252.018996,82.3862024 251.387202,82.726399 250.9012,82.9208 C250.317997,83.0180005 249.904901,83.0908998 249.6619,83.1395 C249.418899,83.1881002 249.175901,83.2609995 248.9329,83.3582 C248.689899,83.4554005 248.349702,83.5282998 247.9123,83.5769 C247.474898,83.6255002 246.770205,83.6983995 245.7982,83.7956 C245.8954,84.2816024 245.8954,84.5974993 245.7982,84.7433 C245.701,84.8891007 245.6038,85.2049976 245.5066,85.691 C245.312199,86.5658044 244.996302,87.5377947 244.5589,88.607 C244.121498,89.6762053 243.708402,90.5995961 243.3196,91.3772 C242.833598,92.3492049 241.813008,93.4183942 240.2578,94.5848 L236.7586,97.2092 C235.980996,97.7924029 234.766008,98.2297985 233.1136,98.5214 C231.461192,98.8130015 230.051806,98.9588 228.8854,98.9588 C226.84419,98.8615995 225.021708,98.2784053 223.4179,97.2092 C221.814092,96.1399947 220.623404,94.4876112 219.8458,92.252 C219.554199,91.3771956 219.627098,90.4295051 220.0645,89.4089 C220.501902,88.3882949 220.963598,87.3434053 221.4496,86.2742 C222.032803,85.1077942 223.126292,83.8685066 224.7301,82.5563 C226.333908,81.2440934 227.913392,80.4422015 229.4686,80.1506 C230.926607,79.7617981 232.360293,79.6159995 233.7697,79.7132 C235.179107,79.8104005 236.466994,79.859 237.6334,79.859 C237.5362,79.1785966 237.390401,78.5468029 237.196,77.9636 L236.6128,76.214 L235.3006,72.7148 C234.814598,71.6455947 234.304303,70.6250049 233.7697,69.653 C233.235097,68.6809951 232.676203,67.6604053 232.093,66.5912 L230.635,63.6752 C230.148998,62.7031951 229.711602,61.7312049 229.3228,60.7592 C228.545196,61.9256058 227.719004,63.3592915 226.8442,65.0603 C225.969396,66.7613085 225.143204,68.4379917 224.3656,70.0904 C223.490796,71.9372092 222.664604,73.8811898 221.887,75.9224 C221.692599,76.0196005 221.449601,76.0196005 221.158,75.9224 C220.866399,75.8251995 220.574801,75.679401 220.2832,75.485 C219.991599,75.290599 219.7972,75.0476015 219.7,74.756 C219.6028,74.4643985 219.651399,74.1728015 219.8458,73.8812 L220.3561,72.8606 C220.696302,72.1801966 221.060798,71.4026044 221.4496,70.5278 C221.838402,69.6529956 222.251498,68.7539046 222.6889,67.8305 C223.126302,66.9070954 223.490799,66.1538029 223.7824,65.5706 C223.976801,64.9873971 224.268398,64.3070039 224.6572,63.5294 L225.6778,61.4882 C226.066602,60.7105961 226.3096,60.1274019 226.4068,59.7386 C226.892802,58.6693947 227.1844,57.9647017 227.2816,57.6245 C227.3788,57.2842983 227.476,57.017001 227.5732,56.8226 C227.6704,56.628199 227.7433,56.2637027 227.7919,55.7291 C227.8405,55.1944973 227.9134,54.1496078 228.0106,52.5944 C228.0106,52.3027985 228.156399,51.7682039 228.448,50.9906 C228.739601,50.2129961 229.104098,49.4354039 229.5415,48.6578 C229.978902,47.8801961 230.416298,47.1755032 230.8537,46.5437 C231.291102,45.9118968 231.704198,45.5474005 232.093,45.4502 C232.481802,45.3529995 232.821999,45.2558005 233.1136,45.1586 C233.405201,45.0613995 233.793998,45.0128 234.28,45.0128 C234.766002,45.207201 235.0333,45.3772993 235.0819,45.5231 C235.1305,45.6689007 235.2034,45.838999 235.3006,46.0334 C235.495001,46.4222019 235.470701,47.2726934 235.2277,48.5849 C234.984699,49.8971066 234.474404,50.8447971 233.6968,51.428 C233.210798,51.9140024 232.870601,52.2298993 232.6762,52.3757 C232.481799,52.5215007 232.336,52.8373976 232.2388,53.3234 C232.1416,53.7122019 232.093,54.1252978 232.093,54.5627 C232.093,55.0001022 232.335998,55.6075961 232.822,56.3852 C233.794005,58.2320092 235.008993,60.0787908 236.467,61.9256 C237.244604,62.9948053 237.876398,63.9424959 238.3624,64.7687 C238.848402,65.5949041 239.188599,66.1537985 239.383,66.4454 C240.355005,67.5146053 241.278396,68.7052934 242.1532,70.0175 C243.028004,71.3297066 243.805597,72.9091908 244.486,74.756 C244.874802,75.5336039 245.190699,76.3597956 245.4337,77.2346 C245.676701,78.1094044 245.895399,79.0813947 246.0898,80.1506 C247.256206,80.0533995 248.665592,79.7132029 250.318,79.13 C251.970408,78.5467971 253.185396,77.7692049 253.963,76.7972 C254.546203,76.0195961 255.032198,75.3149032 255.421,74.6831 C255.809802,74.0512968 256.198598,73.3466039 256.5874,72.569 C256.976202,71.5969951 257.510797,70.3820073 258.1912,68.924 C258.871603,67.4659927 259.406198,66.3482039 259.795,65.5706 C260.086601,64.9873971 260.402498,64.3070039 260.7427,63.5294 C261.082902,62.7517961 261.398799,62.0714029 261.6904,61.4882 L262.5652,59.7386 C263.051202,58.6693947 263.3185,57.9647017 263.3671,57.6245 C263.4157,57.2842983 263.4886,57.017001 263.5858,56.8226 C263.683,56.628199 263.7802,56.2637027 263.8774,55.7291 C263.9746,55.1944973 264.0232,54.1496078 264.0232,52.5944 C264.0232,52.3027985 264.168999,51.7682039 264.4606,50.9906 C264.752201,50.2129961 265.116698,49.4354039 265.5541,48.6578 C265.991502,47.8801961 266.428898,47.1755032 266.8663,46.5437 C267.303702,45.9118968 267.716798,45.5474005 268.1056,45.4502 C268.494402,45.3529995 268.858898,45.2558005 269.1991,45.1586 C269.539302,45.0613995 269.903798,45.0128 270.2926,45.0128 C270.778602,45.207201 271.0459,45.3772993 271.0945,45.5231 C271.1431,45.6689007 271.216,45.838999 271.3132,46.0334 C271.507601,46.4222019 271.483301,47.2726934 271.2403,48.5849 C270.997299,49.8971066 270.487004,50.8447971 269.7094,51.428 C269.223398,51.9140024 268.883201,52.2298993 268.6888,52.3757 C268.494399,52.5215007 268.3486,52.8373976 268.2514,53.3234 C268.1542,53.7122019 268.1299,54.1252978 268.1785,54.5627 C268.2271,55.0001022 268.445798,55.6075961 268.8346,56.3852 C269.806605,58.2320092 271.021593,60.0787908 272.4796,61.9256 C273.257204,62.9948053 273.888998,63.9424959 274.375,64.7687 C274.861002,65.5949041 275.201199,66.1537985 275.3956,66.4454 C276.367605,67.5146053 277.290996,68.7052934 278.1658,70.0175 C279.040604,71.3297066 279.866796,72.9091908 280.6444,74.756 C281.130402,76.1168068 281.616398,77.9149888 282.1024,80.1506 C283.268806,80.0533995 284.678192,79.7132029 286.3306,79.13 C287.983008,78.5467971 289.197996,77.7692049 289.9756,76.7972 C290.850404,75.7279947 291.506498,74.7317046 291.9439,73.8083 C292.381302,72.8848954 292.891597,71.9372049 293.4748,70.9652 Z M238.2166,84.233 C238.2166,84.1357995 238.168,84.0872 238.0708,84.0872 C236.904394,84.0872 235.519308,83.9414015 233.9155,83.6498 C232.311692,83.3581985 230.829407,83.3581985 229.4686,83.6498 C226.941387,84.0386019 225.240404,85.1563908 224.3656,87.0032 C223.976798,87.8780044 223.660901,88.6555966 223.4179,89.336 C223.174899,90.0164034 223.150599,90.7453961 223.345,91.523 C223.539401,92.0090024 223.903897,92.4949976 224.4385,92.981 C224.973103,93.4670024 225.556297,93.9043981 226.1881,94.2932 C226.819903,94.6820019 227.451697,95.0221985 228.0835,95.3138 C228.715303,95.6054015 229.225598,95.7512 229.6144,95.7512 C231.461209,95.7512 232.894895,95.4596029 233.9155,94.8764 C234.936105,94.2931971 235.713697,93.5156049 236.2483,92.5436 C236.782903,91.5715951 237.147399,90.4781061 237.3418,89.2631 C237.536201,88.0480939 237.779199,86.7602068 238.0708,85.3994 C238.168,85.0105981 238.2409,84.8162 238.2895,84.8162 C238.3381,84.8162 238.3138,84.6218019 238.2166,84.233 Z M274.375,84.233 C274.2778,84.038599 274.2778,83.9656998 274.375,84.0143 C274.4722,84.0629002 274.423601,84.0872 274.2292,84.0872 C273.645997,84.0872 272.844105,84.184399 271.8235,84.3788 C270.802895,84.573201 269.709406,84.8161985 268.543,85.1078 C267.376594,85.3994015 266.258805,85.6909985 265.1896,85.9826 C264.120395,86.2742015 263.245603,86.4685995 262.5652,86.5658 C259.940787,87.1490029 258.239804,88.2667917 257.4622,89.9192 C257.073398,90.7940044 256.733201,91.5958964 256.4416,92.3249 C256.149999,93.0539036 256.149999,93.8071961 256.4416,94.5848 C256.636001,95.0708024 256.976198,95.5567976 257.4622,96.0428 C257.948202,96.5288024 258.507097,96.9661981 259.1389,97.355 C259.770703,97.7438019 260.402497,98.0596988 261.0343,98.3027 C261.666103,98.5457012 262.176398,98.6672 262.5652,98.6672 C264.412009,98.6672 266.015793,98.2298044 267.3766,97.355 C268.737407,96.4801956 269.855196,95.3867066 270.73,94.0745 C271.604804,92.7622934 272.309497,91.3286078 272.8441,89.7734 C273.378703,88.2181922 273.791799,86.7602068 274.0834,85.3994 C274.1806,85.0105981 274.2535,84.8162 274.3021,84.8162 C274.3507,84.8162 274.375,84.6218019 274.375,84.233 Z" id="Melissa" fill="#525684"></path>
            <path d="M339.6934,72.569 C339.7906,71.8885966 340.033598,71.451201 340.4224,71.2568 C340.811202,71.062399 341.175698,71.0380993 341.5159,71.1839 C341.856102,71.3297007 342.0748,71.6212978 342.172,72.0587 C342.2692,72.4961022 342.172001,73.0549966 341.8804,73.7354 L341.1514,75.1934 C340.956999,75.6794024 340.738301,76.2139971 340.4953,76.7972 C340.252299,77.3804029 339.985001,77.9635971 339.6934,78.5468 C339.304598,79.3244039 338.891502,80.1262959 338.4541,80.9525 C338.016698,81.7787041 337.555002,82.6777951 337.069,83.6498 C336.680198,84.4274039 336.340001,85.1806964 336.0484,85.9097 C335.756799,86.6387036 335.368002,87.3919961 334.882,88.1696 C334.493198,88.8500034 334.128702,89.5060968 333.7885,90.1379 C333.448298,90.7697032 333.083802,91.4743961 332.695,92.252 C332.111797,93.2240049 331.528603,94.2202949 330.9454,95.2409 C330.362197,96.2615051 329.706104,97.2091956 328.9771,98.084 C328.248096,98.9588044 327.446204,99.6634973 326.5714,100.1981 C325.696596,100.732703 324.676006,101 323.5096,101 L320.4478,101 C319.572996,100.611198 318.819703,100.295301 318.1879,100.0523 C317.556097,99.8092988 316.997202,99.2990039 316.5112,98.5214 C315.830797,97.4521947 315.247602,96.3587056 314.7616,95.2409 C314.275598,94.1230944 313.984,93.1754039 313.8868,92.3978 C313.7896,91.5229956 313.7896,90.6482044 313.8868,89.7734 C313.984,88.8985956 314.129799,87.8294063 314.3242,86.5658 C314.518601,85.3993942 314.688699,84.2330058 314.8345,83.0666 C314.980301,81.9001942 315.150399,80.7338058 315.3448,79.5674 C314.664397,81.2198083 314.081202,82.4833956 313.5952,83.3582 C313.109198,84.3302049 312.501704,85.4479937 311.7727,86.7116 C311.043696,87.9752063 310.144605,89.2387937 309.0754,90.5024 C308.589398,91.1828034 308.030503,91.8145971 307.3987,92.3978 C306.766897,92.9810029 306.208002,93.5641971 305.722,94.1474 C304.944396,94.9250039 304.166804,95.5324978 303.3892,95.9699 C302.611596,96.4073022 301.979802,96.7717985 301.4938,97.0634 C301.3966,97.257801 301.2994,97.3792998 301.2022,97.4279 C301.105,97.4765002 301.0078,97.5493995 300.9106,97.6466 C299.452593,98.4242039 297.946008,98.5700024 296.3908,98.084 C294.738392,97.4035966 293.426205,96.3344073 292.4542,94.8764 L291.871,93.71 C291.482198,92.8351956 291.214901,91.7417066 291.0691,90.4295 C290.923299,89.1172934 290.8504,87.6836078 290.8504,86.1284 C290.8504,84.1843903 290.947599,82.2404097 291.142,80.2964 C291.336401,78.3523903 291.579399,76.7000068 291.871,75.3392 C292.065401,74.0755937 292.527096,72.6176083 293.2561,70.9652 C293.985104,69.3127917 294.786996,67.6604083 295.6618,66.008 C296.633805,64.1611908 297.630095,62.6303061 298.6507,61.4153 C299.671305,60.2002939 300.570396,59.2526034 301.348,58.5722 C302.028403,57.9889971 302.514399,57.5516015 302.806,57.26 C303.097601,56.9683985 303.777995,56.6768015 304.8472,56.3852 C306.110806,56.0935985 307.301494,55.9235002 308.4193,55.8749 C309.537106,55.8262998 310.387597,55.899199 310.9708,56.0936 C311.456802,56.288001 312.064296,56.6038978 312.7933,57.0413 C313.522304,57.4787022 314.178397,57.9403976 314.7616,58.4264 C315.442003,58.9124024 316.122397,59.4469971 316.8028,60.0302 L318.2608,62.8004 C318.1636,62.8976005 318.017801,62.9947995 317.8234,63.092 C317.337398,63.286401 316.900002,63.286401 316.5112,63.092 C316.122398,62.9947995 315.612103,62.7518019 314.9803,62.363 C314.348497,61.9741981 313.935401,61.7312005 313.741,61.634 C312.671795,61.439599 311.845603,61.4152993 311.2624,61.5611 C310.679197,61.7069007 310.290401,61.8283995 310.096,61.9256 C309.123995,62.120001 308.395002,62.4358978 307.909,62.8733 C307.422998,63.3107022 306.888403,63.7723976 306.3052,64.2584 C305.624797,64.8416029 305.065902,65.4490968 304.6285,66.0809 C304.191098,66.7127032 303.535004,67.8547917 302.6602,69.5072 C301.785396,71.1596083 301.177902,72.5446944 300.8377,73.6625 C300.497498,74.7803056 300.230201,75.9223942 300.0358,77.0888 C299.9386,77.6720029 299.647002,78.7411922 299.161,80.2964 C298.674998,81.8516078 298.261902,83.4553917 297.9217,85.1078 C297.581498,86.7602083 297.4357,88.3153927 297.4843,89.7734 C297.5329,91.2314073 298.043195,92.1061985 299.0152,92.3978 C299.695603,92.592201 300.424596,92.5436015 301.2022,92.252 C301.979804,91.9603985 302.708797,91.5716024 303.3892,91.0856 C304.069603,90.5995976 304.725697,90.0164034 305.3575,89.336 C305.989303,88.6555966 306.499598,88.0724024 306.8884,87.5864 C307.957605,86.4199942 308.929596,85.2536058 309.8044,84.0872 C310.679204,82.9207942 311.359598,81.9002044 311.8456,81.0254 C312.623204,79.6645932 313.522295,77.8907109 314.5429,75.7037 C315.563505,73.5166891 316.511196,71.5484087 317.386,69.7988 L317.8234,68.0492 C317.9206,67.6603981 317.9692,67.4174005 317.9692,67.3202 C318.0664,66.8341976 318.260799,66.3482024 318.5524,65.8622 C318.844001,65.3761976 319.232798,65.036001 319.7188,64.8416 C320.107602,64.5499985 320.836595,64.501399 321.9058,64.6958 C322.391802,64.6958 322.780599,64.8415985 323.0722,65.1332 C323.363801,65.4248015 323.703998,65.7163985 324.0928,66.008 C324.578802,66.3968019 325.040498,66.7855981 325.4779,67.1744 C325.915302,67.5632019 326.0854,68.0005976 325.9882,68.4866 L325.6237,70.3091 C325.380699,71.5241061 325.064802,73.0549908 324.676,74.9018 C324.287198,76.7486092 323.849802,78.8140886 323.3638,81.0983 C322.877798,83.3825114 322.440402,85.5937893 322.0516,87.7322 C321.9544,88.2182024 321.832901,88.9228954 321.6871,89.8463 C321.541299,90.7697046 321.4684,91.7659947 321.4684,92.8352 C321.3712,94.4876083 321.395499,95.7997951 321.5413,96.7718 C321.687101,97.7438049 322.051597,98.2783995 322.6348,98.3756 C323.218003,98.4728005 323.849797,98.2784024 324.5302,97.7924 C325.210603,97.3063976 325.890997,96.6989036 326.5714,95.9699 C327.251803,95.2408964 327.932197,94.4147046 328.6126,93.4913 C329.293003,92.5678954 329.876198,91.6688044 330.3622,90.794 C330.653801,90.2107971 330.945399,89.5547036 331.237,88.8257 C331.528601,88.0966964 331.868798,87.4892024 332.2576,87.0032 C332.840803,86.3227966 333.302498,85.5695041 333.6427,84.7433 C333.982902,83.9170959 334.347398,83.1152039 334.7362,82.3376 C335.125002,81.7543971 335.440899,81.1712029 335.6839,80.588 C335.926901,80.0047971 336.194199,79.4702024 336.4858,78.9842 C336.971802,78.1093956 337.360599,77.3075036 337.6522,76.5785 C337.943801,75.8494964 338.235399,75.2420024 338.527,74.756 C338.721401,74.2699976 338.964399,73.7840024 339.256,73.298 C339.450401,73.0063985 339.5962,72.763401 339.6934,72.569 Z" id="Path" fill="#525684"></path>
            <path d="M221.158,71.111 C221.741203,70.916599 222.275798,70.8679995 222.7618,70.9652 C223.247802,71.0624005 223.4908,71.3539976 223.4908,71.84 C223.199199,72.4232029 222.931901,73.1521956 222.6889,74.027 C222.445899,74.9018044 222.081402,75.7279961 221.5954,76.5056 C220.137393,79.2272136 218.41211,82.1674842 216.4195,85.3265 C214.42689,88.4855158 212.653008,91.2313883 211.0978,93.5642 C210.611798,94.2446034 210.223001,94.9492964 209.9314,95.6783 C209.639799,96.4073036 209.251002,97.1605961 208.765,97.9382 C208.278998,98.6186034 207.647204,99.4447951 206.8696,100.4168 C206.286397,101.097203 205.557404,101.558899 204.6826,101.8019 C203.807796,102.044901 202.835805,101.923402 201.7666,101.4374 C201.572199,101.242999 201.353501,101.1215 201.1105,101.0729 C200.867499,101.0243 200.648801,100.9514 200.4544,100.8542 C200.259999,100.659799 200.065601,100.5626 199.8712,100.5626 C199.676799,100.5626 199.433801,100.465401 199.1422,100.271 C199.045,100.1738 198.923501,100.0766 198.7777,99.9794 C198.631899,99.8821995 198.461801,99.736401 198.2674,99.542 C196.614992,97.8895917 195.934599,95.265218 196.2262,91.6688 C196.420601,90.3079932 196.4935,88.3154131 196.4449,85.691 C196.3963,83.0665869 196.712197,80.2478151 197.3926,77.2346 C197.878602,74.7073874 198.486096,72.2288121 199.2151,69.7988 C199.944104,67.3687878 200.502998,65.2304092 200.8918,63.3836 L201.6208,59.7386 C201.6208,58.7665951 201.960997,58.183401 202.6414,57.989 C202.835801,57.8917995 203.273197,57.7946005 203.9536,57.6974 C204.634003,57.6001995 205.338696,57.5273002 206.0677,57.4787 C206.796704,57.4300998 207.452797,57.4058 208.036,57.4058 C208.619203,57.4058 208.9594,57.502999 209.0566,57.6974 C209.445402,58.1834024 209.712699,58.4749995 209.8585,58.5722 C210.004301,58.6694005 210.0286,58.9123981 209.9314,59.3012 C209.445398,60.6620068 209.008002,62.1199922 208.6192,63.6752 L207.307,68.2679 C206.820998,69.9689085 206.383602,71.6455917 205.9948,73.298 C205.022795,77.1860194 204.269503,80.8795825 203.7349,84.3788 C203.200297,87.8780175 202.8844,90.4537917 202.7872,92.1062 C202.495599,94.4390117 202.3498,95.9941961 202.3498,96.7718 C202.3498,97.5494039 202.471299,97.9139002 202.7143,97.8653 C202.957301,97.8166998 203.175999,97.7924 203.3704,97.7924 C204.536806,97.8896005 205.338698,97.4522049 205.7761,96.4802 C206.213502,95.5081951 206.626598,94.925001 207.0154,94.7306 C207.1126,94.6333995 207.695795,93.782908 208.765,92.1791 C209.834205,90.575292 211.097793,88.6556112 212.5558,86.42 C214.013807,84.0871883 215.374594,81.7301119 216.6382,79.3487 C217.901806,76.9672881 219.019595,74.9504083 219.9916,73.298 C220.283201,72.8119976 220.4776,72.3989017 220.5748,72.0587 C220.672,71.7184983 220.866399,71.4026015 221.158,71.111 Z" id="Path" fill="#525684"></path>
            <path d="M167.6494,71.5484 C167.843801,71.0623976 168.329796,70.9651985 169.1074,71.2568 C169.885004,71.5484015 170.030802,72.0829961 169.5448,72.8606 C169.4476,73.1522015 169.3504,73.4923981 169.2532,73.8812 C169.156,74.1728015 169.010201,74.5372978 168.8158,74.9747 C168.621399,75.4121022 168.427001,75.8737976 168.2326,76.3598 C167.552197,77.7206068 166.726005,79.300091 165.754,81.0983 C164.781995,82.896509 163.810005,84.6460915 162.838,86.3471 C161.865995,88.0481085 160.966904,89.5789932 160.1407,90.9398 C159.314496,92.3006068 158.755601,93.2239976 158.464,93.71 C157.977998,94.2932029 157.443403,95.0464954 156.8602,95.9699 C156.276997,96.8933046 155.645203,97.6951966 154.9648,98.3756 C154.089996,99.1532039 153.239504,99.6877985 152.4133,99.9794 C151.587096,100.271001 150.833803,100.659798 150.1534,101.1458 C149.570197,101.534602 148.938403,101.826199 148.258,102.0206 C147.577597,102.215001 146.848604,102.409399 146.071,102.6038 C145.196196,102.798201 144.321404,102.8954 143.4466,102.8954 C142.571796,102.8954 141.794203,102.8468 141.1138,102.7496 C139.752993,102.555199 138.10061,101.923405 136.1566,100.8542 C134.11539,99.7849947 132.560205,98.6186063 131.491,97.355 C130.130193,95.9941932 129.109603,94.2689104 128.4292,92.1791 C127.748797,90.0892896 127.36,87.9266112 127.2628,85.691 C127.068399,82.8721859 127.262797,80.1263134 127.846,77.4533 C128.429203,74.7802866 129.206795,72.4718097 130.1788,70.5278 C130.956404,68.9725922 132.001293,67.3202087 133.3135,65.5706 C134.625707,63.8209913 136.156591,62.2658068 137.9062,60.905 C139.267007,59.9329951 140.700692,59.2040024 142.2073,58.718 C143.713908,58.2319976 145.341991,58.1347985 147.0916,58.4264 C149.13281,58.7180015 150.615095,59.2768959 151.5385,60.1031 C152.461905,60.9293041 152.9722,61.9741937 153.0694,63.2378 C153.1666,63.7238024 153.2152,64.9873898 153.2152,67.0286 C153.2152,69.0698102 152.583406,71.3539874 151.3198,73.8812 C151.028199,74.3672024 150.785201,74.9017971 150.5908,75.485 C150.396399,76.0682029 150.104802,76.6027976 149.716,77.0888 C148.841196,78.1580053 147.917805,78.9841971 146.9458,79.5674 C145.973795,80.1506029 145.001805,80.6851976 144.0298,81.1712 C142.571793,81.8516034 141.113807,82.2646993 139.6558,82.4105 C138.197793,82.5563007 136.691208,82.5806005 135.136,82.4834 C134.941599,83.6498058 134.941599,84.8161942 135.136,85.9826 C135.136,86.6630034 135.281799,87.5863942 135.5734,88.7528 C135.865001,89.9192058 136.229498,91.1341937 136.6669,92.3978 C137.104302,93.6614063 137.565998,94.7791951 138.052,95.7512 C138.538002,96.7232049 139.023998,97.3549985 139.51,97.6466 C140.384804,98.1326024 140.8708,98.4484993 140.968,98.5943 C141.0652,98.7401007 141.356798,98.813 141.8428,98.813 C142.426003,98.9102005 143.057797,99.055999 143.7382,99.2504 C144.418603,99.444801 145.196196,99.444801 146.071,99.2504 C146.751403,99.055999 147.334598,98.9102005 147.8206,98.813 C148.306602,98.7157995 148.792598,98.5214015 149.2786,98.2298 C149.959003,97.7437976 150.639397,97.3550015 151.3198,97.0634 C152.000203,96.7717985 152.729196,96.2372039 153.5068,95.4596 C154.187203,94.8763971 154.721798,94.3175027 155.1106,93.7829 C155.499402,93.2482973 155.936798,92.6894029 156.4228,92.1062 C156.714401,91.6201976 157.224696,90.7454063 157.9537,89.4818 C158.682704,88.2181937 159.581795,86.7602083 160.651,85.1078 C161.428604,83.7469932 162.157597,82.2890078 162.838,80.7338 C163.518403,79.1785922 164.198797,77.8178058 164.8792,76.6514 L165.8998,74.6102 C166.191401,74.0269971 166.482999,73.4924024 166.7746,73.0064 L167.6494,71.5484 Z M137.323,72.2774 C136.253795,74.6102117 135.573401,77.1859859 135.2818,80.0048 C136.156604,80.0048 137.055695,79.8833012 137.9791,79.6403 C138.902505,79.3972988 139.850195,78.9356034 140.8222,78.2552 C141.308202,77.9635985 141.721298,77.6234019 142.0615,77.2346 C142.401702,76.8457981 142.863397,76.3598029 143.4466,75.7766 C143.5438,75.582199 143.762498,75.387801 144.1027,75.1934 C144.442902,74.998999 144.6616,74.8532005 144.7588,74.756 C146.897211,72.3259879 148.428095,70.0904102 149.3515,68.0492 C150.274905,66.0079898 150.688,64.7444024 150.5908,64.2584 C150.4936,63.2863951 150.104803,62.7275007 149.4244,62.5817 C148.743997,62.4358993 147.966404,62.4844988 147.0916,62.7275 C146.216796,62.9705012 145.366304,63.3106978 144.5401,63.7481 C143.713896,64.1855022 143.106402,64.5499985 142.7176,64.8416 C141.065192,66.1052063 139.947403,67.2958944 139.3642,68.4137 C138.780997,69.5315056 138.100604,70.8193927 137.323,72.2774 Z" id="Combined-Shape" fill="#525684"></path>
            <path d="M208.192001,138.2616 C208.720004,139.317605 209.068,140.577593 209.236001,142.0416 C209.404002,143.505607 209.296003,145.125591 208.912001,146.9016 C208.575999,148.437608 208.012005,149.805594 207.220001,151.0056 C206.427997,152.205606 205.480006,153.261595 204.376001,154.1736 C203.559997,154.893604 202.696005,155.505597 201.784001,156.0096 C200.871996,156.513603 199.936006,156.957598 198.976001,157.3416 C198.88,157.725602 198.736002,158.181597 198.544001,158.7096 C198.352,159.237603 198.208001,159.741598 198.112001,160.2216 C197.679999,162.18961 196.756008,163.701595 195.340001,164.7576 C193.923994,165.813605 192.31601,166.497598 190.516001,166.8096 C188.715992,167.121602 186.90401,167.109602 185.080001,166.7736 C183.255992,166.437598 181.744007,165.861604 180.544001,165.0456 C179.583996,164.421597 178.732005,163.665604 177.988001,162.7776 C177.243997,161.889596 176.632003,160.893606 176.152001,159.7896 C175.191996,157.629589 174.832,155.205613 175.072001,152.5176 C175.216002,150.45359 175.743996,148.485609 176.656001,146.6136 C176.944002,145.989597 177.387998,145.257604 177.988001,144.4176 C178.588004,143.577596 179.295997,142.701605 180.112001,141.7896 C180.640004,141.261597 181.179998,140.733603 181.732001,140.2056 C182.284004,139.677597 182.847998,139.197602 183.424001,138.7656 C183.039999,138.285598 182.692002,137.733603 182.380001,137.1096 C182.067999,136.485597 181.768002,135.837603 181.480001,135.1656 C181.095999,134.061594 180.784002,132.969605 180.544001,131.8896 C180.304,130.809595 180.232,129.861604 180.328001,129.0456 C180.472002,127.557593 180.831998,126.273605 181.408001,125.1936 C181.984004,124.113595 182.679997,123.165604 183.496001,122.3496 C184.312005,121.533596 185.223996,120.873603 186.232001,120.3696 C187.240006,119.865597 188.295995,119.421602 189.400001,119.0376 C189.832003,118.893599 190.347998,118.7856 190.948001,118.7136 C191.548004,118.6416 192.183998,118.6056 192.856001,118.6056 C193.720005,118.6536 194.535997,118.7256 195.304001,118.8216 C196.072005,118.9176 196.623999,119.0136 196.960001,119.1096 C197.248002,119.2056 197.631999,119.385599 198.112001,119.6496 C198.592003,119.913601 199.071999,120.237598 199.552001,120.6216 C200.656006,121.533605 201.316,122.565594 201.532001,123.7176 C201.748002,124.869606 201.664003,126.285592 201.280001,127.9656 C201.136,128.589603 200.848003,129.141598 200.416001,129.6216 C199.983999,130.101602 199.528003,130.533598 199.048001,130.9176 C198.519998,131.349602 197.920004,131.733598 197.248001,132.0696 C196.959999,132.0216 196.852001,131.9496 196.924001,131.8536 C196.996001,131.7576 196.960002,131.6616 196.816001,131.5656 C196.72,131.325599 196.839999,131.109601 197.176001,130.9176 C197.704004,130.677599 198.243998,130.257603 198.796001,129.6576 C199.348004,129.057597 199.72,128.397604 199.912001,127.6776 C200.152002,126.621595 200.200002,125.625605 200.056001,124.6896 C199.912,123.753595 199.480005,123.021603 198.760001,122.4936 C198.327999,122.109598 197.944003,121.8816 197.608001,121.8096 C197.271999,121.7376 196.960002,121.6536 196.672001,121.5576 C196.335999,121.4616 196.084002,121.3776 195.916001,121.3056 C195.748,121.2336 195.256005,121.1976 194.440001,121.1976 C193.815998,121.1496 193.096005,121.221599 192.280001,121.4136 C191.463997,121.605601 190.864003,121.773599 190.480001,121.9176 C189.519996,122.253602 188.620005,122.853596 187.780001,123.7176 C186.939997,124.581604 186.208004,125.589594 185.584001,126.7416 C184.959998,127.893606 184.492002,129.105594 184.180001,130.3776 C183.867999,131.649606 183.76,132.837594 183.856001,133.9416 C184.096002,134.613603 184.240001,135.297597 184.288001,135.9936 C184.336001,136.689603 184.551999,137.253598 184.936001,137.6856 C185.608004,137.157597 186.207998,136.797601 186.736001,136.6056 C187.264004,136.413599 187.791998,136.2696 188.320001,136.1736 C188.848004,136.0776 189.399998,136.0296 189.976001,136.0296 C190.552004,136.0296 191.175998,136.149599 191.848001,136.3896 C191.944001,136.3896 192.028001,136.4016 192.100001,136.4256 C192.172001,136.4496 192.232001,136.4616 192.280001,136.4616 C192.664003,136.5576 192.976,136.761598 193.216001,137.0736 C193.456002,137.385602 193.672,137.709598 193.864001,138.0456 C193.960001,138.237601 194.020001,138.453599 194.044001,138.6936 C194.068001,138.933601 194.080001,139.173599 194.080001,139.4136 C194.080001,139.653601 194.044001,139.917599 193.972001,140.2056 C193.900001,140.493601 193.792002,140.733599 193.648001,140.9256 C193.552,141.165601 193.408002,141.357599 193.216001,141.5016 C193.024,141.645601 192.808002,141.837599 192.568001,142.0776 C192.376,142.221601 192.100003,142.2816 191.740001,142.2576 C191.379999,142.2336 191.032003,142.2696 190.696001,142.3656 C189.687996,142.605601 188.692006,142.521602 187.708001,142.1136 C186.723996,141.705598 185.800005,141.045605 184.936001,140.1336 C184.696,140.325601 184.384003,140.721597 184.000001,141.3216 C183.615999,141.921603 183.220003,142.641596 182.812001,143.4816 C182.403999,144.321604 182.008003,145.257595 181.624001,146.2896 C181.239999,147.321605 180.928002,148.341595 180.688001,149.3496 C180.303999,151.029608 180.232,152.529593 180.472001,153.8496 C180.712002,155.169607 181.023999,156.309595 181.408001,157.2696 C181.504001,157.509601 181.672,158.085595 181.912001,158.9976 C182.152002,159.909605 182.559998,160.701597 183.136001,161.3736 C183.952005,162.381605 184.887996,163.017599 185.944001,163.2816 C187.000006,163.545601 188.127995,163.6536 189.328001,163.6056 C190.144005,163.6056 190.959997,163.533601 191.776001,163.3896 C192.592005,163.245599 193.335998,163.005602 194.008001,162.6696 C194.680004,162.333598 195.255999,161.925602 195.736001,161.4456 C196.216003,160.965598 196.528,160.389603 196.672001,159.7176 C196.768001,159.333598 196.9,159.009601 197.068001,158.7456 C197.236002,158.481599 197.344001,158.157602 197.392001,157.7736 C197.103999,157.8696 196.960001,157.9056 196.960001,157.8816 C196.960001,157.8576 196.816002,157.8936 196.528001,157.9896 C194.559991,158.373602 192.808009,158.349602 191.272001,157.9176 C189.591993,157.533598 188.392005,156.717606 187.672001,155.4696 C187.143998,154.701596 186.832001,153.861605 186.736001,152.9496 C186.64,152.037595 186.712,151.149604 186.952001,150.2856 C187.240002,149.085594 187.827996,148.041604 188.716001,147.1536 C189.604005,146.265596 190.743994,145.7736 192.136001,145.6776 C193.240006,145.5816 194.247996,145.773598 195.160001,146.2536 C196.792009,146.973604 197.919998,148.161592 198.544001,149.8176 C199.168004,151.473608 199.360002,153.28559 199.120001,155.2536 C199.984005,154.917598 200.799997,154.569602 201.568001,154.2096 C202.336005,153.849598 203.055998,153.405603 203.728001,152.8776 C204.640005,152.157596 205.419998,151.293605 206.068001,150.2856 C206.716004,149.277595 207.183999,148.053607 207.472001,146.6136 C207.856003,144.933592 208.084001,143.433607 208.156001,142.1136 C208.228001,140.793593 208.024003,139.653605 207.544001,138.6936 C207.304,138.261598 207.064002,137.865602 206.824001,137.5056 C206.584,137.145598 206.296003,136.845601 205.960001,136.6056 C205.623999,136.365599 205.288003,136.2456 204.952001,136.2456 C204.615999,136.2456 204.256003,136.2936 203.872001,136.3896 C203.343998,136.4856 202.948002,136.737598 202.684001,137.1456 C202.42,137.553602 202.048003,138.165596 201.568001,138.9816 C201.520001,139.0776 201.412002,139.317598 201.244001,139.7016 C201.076,140.085602 201.04,140.541597 201.136001,141.0696 C201.136001,141.405602 201.256,141.741598 201.496001,142.0776 C201.736002,142.413602 201.999999,142.701599 202.288001,142.9416 C202.480002,143.181601 202.719999,143.529598 203.008001,143.9856 C203.296002,144.441602 203.344002,144.789599 203.152001,145.0296 C203.008,145.173601 202.720003,145.2216 202.288001,145.1736 C201.903999,145.1256 201.568002,144.981601 201.280001,144.7416 C200.991999,144.501599 200.728002,144.285601 200.488001,144.0936 C200.248,143.853599 200.056002,143.577602 199.912001,143.2656 C199.768,142.953598 199.648001,142.245606 199.552001,141.1416 C199.504001,140.757598 199.516001,140.409602 199.588001,140.0976 C199.660001,139.785598 199.744,139.485601 199.840001,139.1976 C199.936001,138.909599 200.056,138.597602 200.200001,138.2616 L200.200001,138.1896 C200.728004,137.277595 201.303998,136.605602 201.928001,136.1736 C202.552004,135.741598 203.175998,135.4776 203.800001,135.3816 C204.616005,135.237599 205.431997,135.429597 206.248001,135.9576 C207.064005,136.533603 207.711999,137.301595 208.192001,138.2616 Z M189.616001,138.3336 C188.319994,138.189599 187.144006,138.477596 186.088001,139.1976 C186.904005,139.965604 187.611998,140.517598 188.212001,140.8536 C188.812004,141.189602 189.567996,141.237601 190.480001,140.9976 C191.152004,140.853599 191.691999,140.7696 192.100001,140.7456 C192.508003,140.7216 192.808,140.565601 193.000001,140.2776 C193.192002,140.037599 193.288001,139.749602 193.288001,139.4136 C193.288001,139.125599 193.120003,138.897601 192.784001,138.7296 C192.447999,138.561599 192.064003,138.4536 191.632001,138.4056 C191.199999,138.3576 190.792003,138.3336 190.408001,138.3336 L189.616001,138.3336 Z M197.680001,155.7576 C197.776001,154.989596 197.800001,154.185604 197.752001,153.3456 C197.704001,152.505596 197.572002,151.701604 197.356001,150.9336 C197.14,150.165596 196.816003,149.469603 196.384001,148.8456 C195.951999,148.221597 195.400004,147.765601 194.728001,147.4776 C194.247999,147.237599 193.816003,147.0936 193.432001,147.0456 C193.047999,146.9976 192.640003,146.9976 192.208001,147.0456 C190.287991,147.189601 188.968005,148.341589 188.248001,150.5016 C187.863999,151.461605 187.78,152.217597 187.996001,152.7696 C188.212002,153.321603 188.511999,153.909597 188.896001,154.5336 C189.280003,155.061603 189.651999,155.397599 190.012001,155.5416 C190.372003,155.685601 190.911997,155.853599 191.632001,156.0456 C192.976008,156.381602 194.607991,156.357602 196.528001,155.9736 C196.864003,155.9256 197.056001,155.9016 197.104001,155.9016 C197.152001,155.9016 197.343999,155.8536 197.680001,155.7576 Z" id="&amp;" fill="#98BCBA"></path>
            <path d="M293.892,222.3518 C294.378002,222.935003 294.402302,223.712595 293.9649,224.6846 C293.527498,225.656605 292.944304,226.628595 292.2153,227.6006 C291.486296,228.572605 290.733004,229.423096 289.9554,230.1521 C289.177796,230.881104 288.643201,231.2942 288.3516,231.3914 C287.768397,231.585801 286.966505,231.804499 285.9459,232.0475 C284.925295,232.290501 283.831806,232.484899 282.6654,232.6307 C281.498994,232.776501 280.308306,232.898 279.0933,232.9952 C277.878294,233.0924 276.784805,233.0924 275.8128,232.9952 C274.354793,232.898 272.945407,232.606402 271.5846,232.1204 C270.223793,231.634398 268.935906,230.832506 267.7209,229.7147 C266.505894,228.596894 265.339506,227.090309 264.2217,225.1949 C263.103894,223.299491 262.010405,220.893815 260.9412,217.9778 C259.677594,214.478583 258.657004,211.173816 257.8794,208.0634 C257.101796,204.952984 256.542902,201.964114 256.2027,199.0967 C255.862498,196.229286 255.6681,193.386214 255.6195,190.5674 C255.5709,187.748586 255.5952,184.784016 255.6924,181.6736 C255.400799,181.479199 255.109201,181.3577 254.8176,181.3091 C254.525999,181.2605 254.234401,181.139001 253.9428,180.9446 C252.290392,180.264197 250.44361,179.486604 248.4024,178.6118 C246.36119,177.736996 244.125612,176.862204 241.6956,175.9874 L239.5086,180.7988 C235.52338,189.060841 231.173724,196.399368 226.4595,202.8146 C221.745276,209.229832 216.42363,213.700987 210.4944,216.2282 C208.45319,217.103004 206.339111,217.831997 204.1521,218.4152 C201.965089,218.998403 199.753811,219.144201 197.5182,218.8526 C196.254594,218.7554 195.015306,218.342304 193.8003,217.6133 C192.585294,216.884296 191.589004,216.131004 190.8114,215.3534 C189.256192,213.895393 187.992605,211.805614 187.0206,209.084 C186.242996,206.362386 185.9028,203.786612 186,201.3566 C186,200.578996 186.145799,199.679905 186.4374,198.6593 C186.729001,197.638695 187.093498,196.618105 187.5309,195.5975 C187.968302,194.576895 188.429998,193.604905 188.916,192.6815 C189.402002,191.758095 189.839398,191.004803 190.2282,190.4216 C190.714202,189.643996 191.394596,188.817804 192.2694,187.943 C193.144204,187.068196 194.116195,186.387802 195.1854,185.9018 C195.671402,185.707399 196.205997,185.537301 196.7892,185.3915 C197.372403,185.245699 197.906998,185.075601 198.393,184.8812 C198.976203,184.686799 199.510798,184.711099 199.9968,184.9541 C200.482802,185.197101 200.968798,185.415799 201.4548,185.6102 C202.524005,185.901801 203.350197,186.679394 203.9334,187.943 C204.516603,189.012205 204.711001,190.51879 204.5166,192.4628 C204.4194,192.754401 204.249301,193.288996 204.0063,194.0666 C203.763299,194.844204 203.5932,195.427398 203.496,195.8162 C201.260389,196.691004 199.753804,196.715304 198.9762,195.8891 C198.198596,195.062896 198.247196,193.920807 199.122,192.4628 C199.0248,192.268399 199.073399,191.952502 199.2678,191.5151 C199.462201,191.077698 199.656599,190.664602 199.851,190.2758 C200.045401,189.886998 200.215499,189.522502 200.3613,189.1823 C200.507101,188.842098 200.482801,188.6234 200.2884,188.5262 C199.607997,188.429 198.879004,188.429 198.1014,188.5262 C196.934994,188.817801 195.963004,189.279497 195.1854,189.9113 C194.407796,190.543103 193.727403,191.344995 193.1442,192.317 C192.463797,193.386205 191.904902,194.528294 191.4675,195.7433 C191.030098,196.958306 190.7628,198.246193 190.6656,199.607 C190.6656,200.773406 190.811399,201.769696 191.103,202.5959 C191.394601,203.422104 191.734798,204.369795 192.1236,205.439 C192.512402,206.508205 192.974097,207.382997 193.5087,208.0634 C194.043303,208.743803 194.699396,209.472796 195.477,210.2504 C196.254604,210.930803 196.886398,211.659796 197.3724,212.4374 C197.858402,213.215004 198.635995,213.6038 199.7052,213.6038 C202.232413,213.409399 204.686688,212.437409 207.0681,210.6878 C209.449512,208.938191 211.806588,206.605415 214.1394,203.6894 C217.055415,199.995782 220.092884,195.694725 223.2519,190.7861 C226.410916,185.877475 229.253987,180.507229 231.7812,174.6752 C234.211212,169.329173 236.519689,163.788829 238.7067,158.054 C240.893711,152.319171 242.95919,146.803126 244.9032,141.5057 C246.84721,136.208274 248.718291,131.226823 250.5165,126.5612 C252.314709,121.895577 254.039992,117.910417 255.6924,114.6056 C256.081202,114.897201 256.494298,114.9944 256.9317,114.8972 C257.369102,114.8 257.733599,114.848599 258.0252,115.043 C260.163611,116.403807 261.2814,117.715994 261.3786,118.9796 L261.6702,121.0208 C261.7674,121.701203 261.816,122.721793 261.816,124.0826 C261.7188,124.763003 261.791699,125.540596 262.0347,126.4154 C262.277701,127.290204 262.3992,128.262195 262.3992,129.3314 C262.3992,130.789407 262.3749,132.198793 262.3263,133.5596 C262.2777,134.920407 262.302,136.329793 262.3992,137.7878 C262.593601,139.73181 262.6665,141.602891 262.6179,143.4011 C262.5693,145.199309 262.545,147.11899 262.545,149.1602 L262.545,156.3773 C262.545,158.758712 262.5936,161.164388 262.6908,163.5944 C262.788,168.551625 262.8123,173.119979 262.7637,177.2996 C262.7151,181.479221 262.787999,185.512981 262.9824,189.401 C263.176801,193.289019 263.638496,197.176981 264.3675,201.065 C265.096504,204.953019 266.335791,209.132578 268.0854,213.6038 C269.737808,217.880621 271.53599,221.233988 273.48,223.664 C275.42401,226.094012 277.562388,227.406199 279.8952,227.6006 C281.644809,227.795001 283.102794,228.037999 284.2692,228.3296 C285.435606,228.621201 286.553395,228.524002 287.6226,228.038 C287.817001,227.843599 287.8656,227.333304 287.7684,226.5071 C287.6712,225.680896 288.205794,224.24721 289.3722,222.206 C290.052603,220.942394 290.708697,220.091902 291.3405,219.6545 C291.972303,219.217098 292.482598,219.071299 292.8714,219.2171 C293.260202,219.362901 293.551799,219.751697 293.7462,220.3835 C293.940601,221.015303 293.9892,221.671397 293.892,222.3518 Z M257.0046,144.3488 C257.1018,141.821587 257.247599,139.148614 257.442,136.3298 C257.636401,133.510986 257.685,130.838013 257.5878,128.3108 C256.615795,133.073624 255.230709,138.322371 253.4325,144.0572 C251.634291,149.792029 249.666011,155.62397 247.5276,161.5532 C246.847197,163.49721 246.118204,165.416891 245.3406,167.3123 C244.562996,169.207709 243.785404,171.078791 243.0078,172.9256 C244.757409,173.703204 246.385492,174.432197 247.8921,175.1126 C249.398708,175.793003 250.783794,176.376198 252.0474,176.8622 C253.019405,177.348202 254.234393,178.077195 255.6924,179.0492 C255.886801,176.910789 256.0326,174.675212 256.1298,172.3424 C256.227,170.009588 256.3242,167.579613 256.4214,165.0524 C256.615801,161.358782 256.713,157.883916 256.713,154.6277 C256.713,151.371484 256.810199,147.945218 257.0046,144.3488 Z M378.456,183.569 C378.5532,182.888597 378.796198,182.451201 379.185,182.2568 C379.573802,182.062399 379.938298,182.038099 380.2785,182.1839 C380.618702,182.329701 380.8374,182.621298 380.9346,183.0587 C381.0318,183.496102 380.934601,184.054997 380.643,184.7354 L379.914,186.1934 C379.719599,186.679402 379.500901,187.213997 379.2579,187.7972 C379.014899,188.380403 378.747601,188.963597 378.456,189.5468 C378.067198,190.324404 377.654102,191.126296 377.2167,191.9525 C376.779298,192.778704 376.317602,193.677795 375.8316,194.6498 C375.442798,195.427404 375.102601,196.180696 374.811,196.9097 C374.519399,197.638704 374.130602,198.391996 373.6446,199.1696 C373.255798,199.850003 372.891302,200.506097 372.5511,201.1379 C372.210898,201.769703 371.846402,202.474396 371.4576,203.252 C370.874397,204.224005 370.291203,205.220295 369.708,206.2409 C369.124797,207.261505 368.468704,208.209196 367.7397,209.084 C367.010696,209.958804 366.208804,210.663497 365.334,211.1981 C364.459196,211.732703 363.438606,212 362.2722,212 L359.2104,212 C358.335596,211.611198 357.582303,211.295301 356.9505,211.0523 C356.318697,210.809299 355.759802,210.299004 355.2738,209.5214 C354.593397,208.452195 354.010202,207.358706 353.5242,206.2409 C353.038198,205.123094 352.7466,204.175404 352.6494,203.3978 C352.5522,202.522996 352.5522,201.648204 352.6494,200.7734 C352.7466,199.898596 352.892399,198.829406 353.0868,197.5658 C353.281201,196.399394 353.451299,195.233006 353.5971,194.0666 C353.742901,192.900194 353.912999,191.733806 354.1074,190.5674 C353.426997,192.219808 352.843802,193.483396 352.3578,194.3582 C351.871798,195.330205 351.264304,196.447994 350.5353,197.7116 C349.806296,198.975206 348.907205,200.238794 347.838,201.5024 C347.351998,202.182803 346.793103,202.814597 346.1613,203.3978 C345.529497,203.981003 344.970602,204.564197 344.4846,205.1474 C343.706996,205.925004 342.929404,206.532498 342.1518,206.9699 C341.374196,207.407302 340.742402,207.771799 340.2564,208.0634 C340.1592,208.257801 340.062,208.3793 339.9648,208.4279 C339.8676,208.4765 339.7704,208.5494 339.6732,208.6466 C338.215193,209.424204 336.708608,209.570002 335.1534,209.084 C333.500992,208.403597 332.188805,207.334407 331.2168,205.8764 L330.6336,204.71 C330.244798,203.835196 329.977501,202.741707 329.8317,201.4295 C329.685899,200.117293 329.613,198.683608 329.613,197.1284 C329.613,195.18439 329.710199,193.24041 329.9046,191.2964 C330.099001,189.35239 330.341999,187.700007 330.6336,186.3392 C330.828001,185.075594 331.289696,183.617608 332.0187,181.9652 C332.747704,180.312792 333.549596,178.660408 334.4244,177.008 C335.396405,175.161191 336.392695,173.630306 337.4133,172.4153 C338.433905,171.200294 339.332996,170.252603 340.1106,169.5722 C340.791003,168.988997 341.276999,168.551601 341.5686,168.26 C341.860201,167.968399 342.540595,167.676801 343.6098,167.3852 C344.873406,167.093599 346.064094,166.9235 347.1819,166.8749 C348.299706,166.8263 349.150197,166.899199 349.7334,167.0936 C350.219402,167.288001 350.826896,167.603898 351.5559,168.0413 C352.284904,168.478702 352.940997,168.940398 353.5242,169.4264 C354.204603,169.912402 354.884997,170.446997 355.5654,171.0302 L357.0234,173.8004 C356.9262,173.8976 356.780401,173.9948 356.586,174.092 C356.099998,174.286401 355.662602,174.286401 355.2738,174.092 C354.884998,173.9948 354.374703,173.751802 353.7429,173.363 C353.111097,172.974198 352.698001,172.7312 352.5036,172.634 C351.434395,172.439599 350.608203,172.415299 350.025,172.5611 C349.441797,172.706901 349.053001,172.8284 348.8586,172.9256 C347.886595,173.120001 347.157602,173.435898 346.6716,173.8733 C346.185598,174.310702 345.651003,174.772398 345.0678,175.2584 C344.387397,175.841603 343.828502,176.449097 343.3911,177.0809 C342.953698,177.712703 342.297604,178.854792 341.4228,180.5072 C340.547996,182.159608 339.940502,183.544694 339.6003,184.6625 C339.260098,185.780306 338.992801,186.922394 338.7984,188.0888 C338.7012,188.672003 338.409602,189.741192 337.9236,191.2964 C337.437598,192.851608 337.024502,194.455392 336.6843,196.1078 C336.344098,197.760208 336.1983,199.315393 336.2469,200.7734 C336.2955,202.231407 336.805795,203.106199 337.7778,203.3978 C338.458203,203.592201 339.187196,203.543601 339.9648,203.252 C340.742404,202.960399 341.471397,202.571602 342.1518,202.0856 C342.832203,201.599598 343.488297,201.016403 344.1201,200.336 C344.751903,199.655597 345.262198,199.072402 345.651,198.5864 C346.720205,197.419994 347.692196,196.253606 348.567,195.0872 C349.441804,193.920794 350.122198,192.900204 350.6082,192.0254 C351.385804,190.664593 352.284895,188.890711 353.3055,186.7037 C354.326105,184.516689 355.273796,182.548409 356.1486,180.7988 L356.586,179.0492 C356.6832,178.660398 356.7318,178.4174 356.7318,178.3202 C356.829,177.834198 357.023399,177.348202 357.315,176.8622 C357.606601,176.376198 357.995398,176.036001 358.4814,175.8416 C358.870202,175.549999 359.599195,175.501399 360.6684,175.6958 C361.154402,175.6958 361.543199,175.841599 361.8348,176.1332 C362.126401,176.424801 362.466598,176.716399 362.8554,177.008 C363.341402,177.396802 363.803098,177.785598 364.2405,178.1744 C364.677902,178.563202 364.848,179.000598 364.7508,179.4866 L364.3863,181.3091 C364.143299,182.524106 363.827402,184.054991 363.4386,185.9018 C363.049798,187.748609 362.612402,189.814089 362.1264,192.0983 C361.640398,194.382511 361.203002,196.593789 360.8142,198.7322 C360.717,199.218202 360.595501,199.922895 360.4497,200.8463 C360.303899,201.769705 360.231,202.765995 360.231,203.8352 C360.1338,205.487608 360.158099,206.799795 360.3039,207.7718 C360.449701,208.743805 360.814197,209.2784 361.3974,209.3756 C361.980603,209.4728 362.612397,209.278402 363.2928,208.7924 C363.973203,208.306398 364.653597,207.698904 365.334,206.9699 C366.014403,206.240896 366.694797,205.414705 367.3752,204.4913 C368.055603,203.567895 368.638798,202.668804 369.1248,201.794 C369.416401,201.210797 369.707999,200.554704 369.9996,199.8257 C370.291201,199.096696 370.631398,198.489202 371.0202,198.0032 C371.603403,197.322797 372.065098,196.569504 372.4053,195.7433 C372.745502,194.917096 373.109998,194.115204 373.4988,193.3376 C373.887602,192.754397 374.203499,192.171203 374.4465,191.588 C374.689501,191.004797 374.956799,190.470202 375.2484,189.9842 C375.734402,189.109396 376.123199,188.307504 376.4148,187.5785 C376.706401,186.849496 376.997999,186.242002 377.2896,185.756 C377.484001,185.269998 377.726999,184.784002 378.0186,184.298 C378.213001,184.006399 378.3588,183.763401 378.456,183.569 Z" id="Adam" fill="#525684"></path>
            <path d="M449.0232,182.9858 C449.217601,182.208196 449.727896,181.892299 450.5541,182.0381 C451.380304,182.183901 451.7934,182.645596 451.7934,183.4232 C451.307398,184.881207 450.602705,186.484991 449.6793,188.2346 C448.755895,189.984209 447.954003,191.733791 447.2736,193.4834 C446.981999,194.261004 446.8119,194.6498 446.7633,194.6498 C446.7147,194.6498 446.496002,195.135795 446.1072,196.1078 C445.815599,196.593802 445.378203,197.347095 444.795,198.3677 C444.211797,199.388305 443.628603,200.481794 443.0454,201.6482 C442.656598,202.425804 442.292102,203.106197 441.9519,203.6894 C441.611698,204.272603 441.198602,204.904397 440.7126,205.5848 C440.129397,206.459604 439.497603,207.310096 438.8172,208.1363 C438.136797,208.962504 437.699401,209.472799 437.505,209.6672 C436.241394,210.639205 435.050706,211.465397 433.9329,212.1458 C432.815094,212.826203 431.721605,213.1178 430.6524,213.0206 C430.069197,212.9234 429.388804,212.777601 428.6112,212.5832 C427.833596,212.388799 427.056004,212.000003 426.2784,211.4168 C425.500796,210.736397 424.820403,209.618608 424.2372,208.0634 C423.653997,206.508192 423.556798,204.75861 423.9456,202.8146 C424.140001,200.578989 424.358699,198.44061 424.6017,196.3994 C424.844701,194.35819 425.306397,191.685217 425.9868,188.3804 C426.181201,187.311195 426.327,186.023308 426.4242,184.5167 C426.5214,183.010092 426.764398,181.28481 427.1532,179.3408 C427.444801,177.785592 427.712099,176.279007 427.9551,174.821 C428.198101,173.362993 428.246701,172.172305 428.1009,171.2489 C427.955099,170.325495 427.517704,169.790901 426.7887,169.6451 C426.059696,169.499299 424.820409,170.009594 423.0708,171.176 C422.584798,171.467601 421.977304,172.123695 421.2483,173.1443 C420.519296,174.164905 419.814603,175.404193 419.1342,176.8622 C418.453797,178.223007 417.360308,179.92399 415.8537,181.9652 C414.347092,184.00641 412.767608,186.582184 411.1152,189.6926 C409.754393,192.511414 408.539405,195.087188 407.4702,197.42 C406.400995,199.752812 405.623402,201.599593 405.1374,202.9604 C404.651398,203.446402 404.019604,203.810899 403.242,204.0539 C402.464396,204.296901 401.735403,204.3698 401.055,204.2726 C400.374597,204.1754 399.767103,203.908102 399.2325,203.4707 C398.697897,203.033298 398.382,202.377204 398.2848,201.5024 C398.2848,201.016398 398.2362,200.384604 398.139,199.607 C398.0418,198.829396 397.9932,198.051804 397.9932,197.2742 C398.0904,196.302195 398.333398,194.479713 398.7222,191.8067 C399.111002,189.133687 399.451199,186.412114 399.7428,183.6419 C400.034401,180.871686 400.107301,178.368811 399.9615,176.1332 C399.815699,173.897589 399.256805,172.682601 398.2848,172.4882 C397.798798,172.391 397.312802,172.609697 396.8268,173.1443 C396.340798,173.678903 395.854802,174.043399 395.3688,174.2378 C394.299595,174.723802 393.303305,175.622893 392.3799,176.9351 C391.456495,178.247307 390.606004,179.729592 389.8284,181.382 C388.661994,183.617611 387.617105,185.974688 386.6937,188.4533 C385.770295,190.931912 384.968403,193.19179 384.288,195.233 C384.093599,195.816203 383.850601,196.836793 383.559,198.2948 C383.267399,199.752807 382.951502,201.235092 382.6113,202.7417 C382.271098,204.248308 381.955201,205.560494 381.6636,206.6783 C381.371999,207.796106 381.1776,208.355 381.0804,208.355 C380.9832,208.355 380.861701,208.476499 380.7159,208.7195 C380.570099,208.962501 380.351401,209.181199 380.0598,209.3756 C379.865399,209.570001 379.598102,209.6429 379.2579,209.5943 C378.917698,209.5457 378.601801,209.57 378.3102,209.6672 C377.338195,209.861601 376.439104,209.885901 375.6129,209.7401 C374.786696,209.594299 374.3736,209.375601 374.3736,209.084 C375.054003,202.960369 375.953094,196.472334 377.0709,189.6197 C378.188706,182.767066 379.087797,176.230431 379.7682,170.0096 C379.573799,169.329197 379.865396,168.721703 380.643,168.1871 C381.420604,167.652497 382.295395,167.312301 383.2674,167.1665 C384.239405,167.020699 385.089896,167.117898 385.8189,167.4581 C386.547904,167.798302 386.815201,168.405796 386.6208,169.2806 L384.1422,187.0682 L383.7048,191.2964 C383.899201,190.518796 384.069299,189.935602 384.2151,189.5468 C384.360901,189.157998 384.579599,188.477605 384.8712,187.5056 C385.940405,184.395184 387.276892,181.309115 388.8807,178.2473 C390.484508,175.185485 392.25839,172.585411 394.2024,170.447 C395.174405,169.377795 396.437992,168.260006 397.9932,167.0936 C399.548408,165.927194 400.860595,165.441199 401.9298,165.6356 C402.901805,165.830001 403.946694,166.145898 405.0645,166.5833 C406.182306,167.020702 407.032797,168.065592 407.616,169.718 C408.004802,170.787205 408.102001,172.463889 407.9076,174.7481 C407.713199,177.032311 407.397302,179.486587 406.9599,182.111 C406.522498,184.735413 406.109402,187.286888 405.7206,189.7655 C405.331798,192.244112 405.0888,194.163793 404.9916,195.5246 C405.477602,194.455395 406.206595,193.118908 407.1786,191.5151 C408.150605,189.911292 408.976797,188.283208 409.6572,186.6308 C410.337603,184.978392 410.993697,183.714804 411.6255,182.84 C412.257303,181.965196 412.961996,180.847407 413.7396,179.4866 C415.68361,175.987383 417.433192,172.949913 418.9884,170.3741 C420.543608,167.798287 421.807195,166.218803 422.7792,165.6356 C425.112012,164.080392 427.25039,163.448599 429.1944,163.7402 C431.624412,164.129002 433.228196,165.489788 434.0058,167.8226 C434.783404,170.155412 435.1722,172.779785 435.1722,175.6958 C435.1722,178.611815 434.904903,181.454886 434.3703,184.2251 C433.835697,186.995314 433.471201,189.012194 433.2768,190.2758 C432.596397,193.580617 432.037502,196.302189 431.6001,198.4406 C431.162698,200.579011 430.846801,202.765989 430.6524,205.0016 C430.5552,206.751209 430.628099,207.6746 430.8711,207.7718 C431.114101,207.869 431.624396,207.9662 432.402,208.0634 C432.888002,208.0634 433.398297,207.796103 433.9329,207.2615 C434.467503,206.726897 434.977798,206.362401 435.4638,206.168 C436.241404,205.681998 437.261994,204.661408 438.5256,203.1062 C439.594805,201.745393 440.591095,200.238808 441.5145,198.5864 C442.437905,196.933992 443.142598,195.670404 443.6286,194.7956 L444.2118,193.6292 C444.309,193.434799 444.3819,193.3133 444.4305,193.2647 C444.4791,193.2161 444.5277,193.1432 444.5763,193.046 L444.9408,192.317 C445.232401,191.344995 445.572598,190.445904 445.9614,189.6197 C446.350202,188.793496 446.738998,187.991604 447.1278,187.214 C447.322201,186.533597 447.638098,185.853203 448.0755,185.1728 C448.512902,184.492397 448.828799,183.763404 449.0232,182.9858 Z" id="Path" fill="#525684"></path>
            <path d="M331.9458,183.4232 C332.140201,182.742797 332.407498,182.329701 332.7477,182.1839 C333.087902,182.038099 333.403799,182.038099 333.6954,182.1839 C333.987001,182.329701 334.1814,182.645598 334.2786,183.1316 C334.3758,183.617602 334.278601,184.200797 333.987,184.8812 C333.8898,184.8812 333.671102,185.245696 333.3309,185.9747 C332.990698,186.703704 332.480403,187.699994 331.8,188.9636 C331.411198,189.644003 330.973802,190.372996 330.4878,191.1506 C330.001798,191.928204 329.515802,192.802995 329.0298,193.775 C328.640998,194.455403 328.276502,195.135797 327.9363,195.8162 C327.596098,196.496603 327.183002,197.225596 326.697,198.0032 C326.308198,198.683603 325.943702,199.339697 325.6035,199.9715 C325.263298,200.603303 324.850202,201.210797 324.3642,201.794 C323.878198,202.571604 323.222104,203.494995 322.3959,204.5642 C321.569696,205.633405 320.694905,206.678295 319.7715,207.6989 C318.848095,208.719505 317.900405,209.667196 316.9284,210.542 C315.956395,211.416804 315.081604,212.048598 314.304,212.4374 C313.915198,212.631801 313.575001,212.826199 313.2834,213.0206 C312.991799,213.215001 312.651602,213.3122 312.2628,213.3122 C311.776798,213.215 311.217903,213.1421 310.5861,213.0935 C309.954297,213.0449 309.298203,212.923401 308.6178,212.729 C306.770991,212.145797 305.458804,210.979409 304.6812,209.2298 C304.389599,208.646597 304.1952,207.941904 304.098,207.1157 C304.0008,206.289496 303.9279,205.439004 303.8793,204.5642 C303.8307,203.689396 303.8064,202.863204 303.8064,202.0856 L303.8064,200.336 C303.611999,197.808787 303.611999,194.795617 303.8064,191.2964 L303.8064,190.7132 C302.931596,192.074007 302.056804,193.531992 301.182,195.0872 C300.307196,196.642408 299.529603,197.954595 298.8492,199.0238 C298.363198,199.995805 297.634205,200.992095 296.6622,202.0127 C295.690195,203.033305 294.669605,204.175394 293.6004,205.439 C293.114398,206.022203 292.531203,206.508198 291.8508,206.897 C291.170397,207.285802 290.587202,207.771797 290.1012,208.355 C289.712398,208.841002 289.129204,209.278398 288.3516,209.6672 C287.573996,210.056002 286.747804,210.396199 285.873,210.6878 C284.998196,210.979401 284.123404,211.1738 283.2486,211.271 C282.373796,211.3682 281.693402,211.271001 281.2074,210.9794 C279.652192,210.493398 278.534403,209.375609 277.854,207.626 C277.7568,207.431599 277.611001,207.042803 277.4166,206.4596 C276.833397,204.51559 276.687599,201.939816 276.9792,198.7322 C277.0764,196.78819 277.367998,194.892809 277.854,193.046 C278.340002,191.199191 278.728799,189.595407 279.0204,188.2346 C279.312001,186.970994 279.822296,185.537308 280.5513,183.9335 C281.280304,182.329692 282.130795,180.701608 283.1028,179.0492 C284.172005,177.299591 285.143996,175.841606 286.0188,174.6752 C286.893604,173.508794 287.719796,172.634003 288.4974,172.0508 C289.177803,171.467597 289.639499,171.054501 289.8825,170.8115 C290.125501,170.568499 290.781595,170.349801 291.8508,170.1554 C293.017206,169.863799 294.134995,169.718 295.2042,169.718 C296.273405,169.718 297.050998,169.863799 297.537,170.1554 C298.023002,170.447001 298.533297,170.787198 299.0679,171.176 C299.602503,171.564802 300.112798,172.002198 300.5988,172.4882 C301.084802,172.974202 301.619397,173.460198 302.2026,173.9462 L303.369,176.8622 C303.2718,176.9594 303.126001,177.0566 302.9316,177.1538 C302.542798,177.348201 302.056803,177.299601 301.4736,177.008 C301.181999,176.9108 300.793202,176.594903 300.3072,176.0603 C299.821198,175.525697 299.432401,175.2584 299.1408,175.2584 C298.460397,175.3556 297.877202,175.4042 297.3912,175.4042 C296.905198,175.4042 296.565001,175.4528 296.3706,175.55 C295.495796,175.744401 294.693904,176.181797 293.9649,176.8622 C293.235896,177.542603 292.579803,178.125798 291.9966,178.6118 C291.316197,179.097802 290.854501,179.778196 290.6115,180.653 C290.368499,181.527804 289.712405,182.839991 288.6432,184.5896 C287.768396,186.144808 287.160902,187.165398 286.8207,187.6514 C286.480498,188.137402 286.164601,188.963594 285.873,190.13 C285.678599,190.907604 285.435601,192.244091 285.144,194.1395 C284.852399,196.034909 284.512202,197.95459 284.1234,199.8986 C284.1234,200.093001 284.050501,200.481797 283.9047,201.065 C283.758899,201.648203 283.6374,202.255697 283.5402,202.8875 C283.443,203.519303 283.4187,204.102497 283.4673,204.6371 C283.5159,205.171703 283.685999,205.4876 283.9776,205.5848 C285.144006,206.070802 286.553392,205.900704 288.2058,205.0745 C289.858208,204.248296 291.073196,203.349205 291.8508,202.3772 C292.920005,201.210794 293.989195,200.190204 295.0584,199.3154 C296.127605,198.440596 296.905198,197.565804 297.3912,196.691 C298.168804,195.232993 299.213693,193.580609 300.5259,191.7338 C301.838107,189.886991 302.980195,188.380406 303.9522,187.214 C304.146601,183.325981 304.389599,179.753916 304.6812,176.4977 C304.972801,173.241484 305.215799,171.176004 305.4102,170.3012 C305.5074,170.009599 305.6046,169.450704 305.7018,168.6245 C305.799,167.798296 305.920499,166.947804 306.0663,166.073 C306.212101,165.198196 306.3336,164.323404 306.4308,163.4486 C306.528,162.573796 306.6252,161.893402 306.7224,161.4074 C307.208402,158.394185 307.864496,155.040818 308.6907,151.3472 C309.516904,147.653582 310.513194,144.008618 311.6796,140.4122 C312.846006,136.815782 314.182492,133.438116 315.6891,130.2791 C317.195708,127.120084 318.92099,124.56861 320.865,122.6246 C321.448203,122.041397 322.201495,121.482503 323.1249,120.9479 C324.048305,120.413297 325.020295,120.000201 326.0409,119.7086 C327.061505,119.416999 328.057795,119.344099 329.0298,119.4899 C330.001805,119.635701 330.827997,120.048797 331.5084,120.7292 C332.188803,121.604004 332.674799,122.527395 332.9664,123.4994 C334.035605,126.512615 334.327202,129.428586 333.8412,132.2474 C333.355198,135.066214 332.529006,137.884986 331.3626,140.7038 C331.070999,141.481404 330.730802,142.283296 330.342,143.1095 C329.953198,143.935704 329.613001,144.737596 329.3214,145.5152 C329.126999,146.195603 328.738203,147.021795 328.155,147.9938 C327.571797,148.965805 326.940003,150.083594 326.2596,151.3472 C325.093194,153.485611 323.781007,155.769788 322.323,158.1998 L318.1677,165.1253 C316.855493,167.312311 315.689105,169.207692 314.6685,170.8115 C313.647895,172.415308 312.991801,173.411598 312.7002,173.8004 C312.603,174.480803 312.5058,175.452794 312.4086,176.7164 C312.3114,177.980006 312.2385,179.316493 312.1899,180.7259 C312.1413,182.135307 312.0684,183.496093 311.9712,184.8083 C311.874,186.120507 311.8254,187.116797 311.8254,187.7972 C311.7282,190.032811 311.6796,192.12259 311.6796,194.0666 L311.6796,199.1696 C311.7768,199.655602 311.8254,200.068698 311.8254,200.4089 L311.8254,201.6482 C311.630999,202.911806 311.436601,204.199693 311.2422,205.5119 C311.047799,206.824107 311.096399,207.868996 311.388,208.6466 C311.4852,208.841001 311.630999,208.9625 311.8254,209.0111 C312.019801,209.0597 312.214199,209.1326 312.4086,209.2298 C312.894602,209.327 313.599295,209.059703 314.5227,208.4279 C315.446105,207.796097 316.393795,207.018505 317.3658,206.0951 C318.337805,205.171695 319.285495,204.151106 320.2089,203.0333 C321.132305,201.915494 321.836998,200.967804 322.323,200.1902 C322.711802,199.606997 323.051999,198.975203 323.3436,198.2948 C323.635201,197.614397 324.023998,197.031202 324.51,196.5452 C324.996002,195.864797 325.433398,195.135804 325.8222,194.3582 C326.211002,193.580596 326.599798,192.851603 326.9886,192.1712 C327.377402,191.587997 327.717599,191.029103 328.0092,190.4945 C328.300801,189.959897 328.592399,189.449602 328.884,188.9636 C329.758804,187.311192 330.439198,185.950405 330.9252,184.8812 C331.119601,184.686799 331.2654,184.516701 331.3626,184.3709 C331.4598,184.225099 331.557,184.055001 331.6542,183.8606 C331.7514,183.666199 331.8486,183.5204 331.9458,183.4232 Z M313.1376,166.9478 C313.1376,167.239401 313.1133,167.3609 313.0647,167.3123 C313.0161,167.2637 312.9918,167.2637 312.9918,167.3123 L312.9918,167.9684 C312.9918,168.357202 312.9432,169.134794 312.846,170.3012 C313.526403,169.329195 314.182497,168.017008 314.8143,166.3646 C315.446103,164.712192 316.199396,163.059808 317.0742,161.4074 C318.823809,158.102583 320.621991,154.846416 322.4688,151.6388 C324.315609,148.431184 325.627796,145.904009 326.4054,144.0572 C326.988603,142.501992 327.668996,140.898208 328.4466,139.2458 C329.224204,137.593392 329.928897,135.965308 330.5607,134.3615 C331.192503,132.757692 331.605599,131.129608 331.8,129.4772 C331.994401,127.824792 331.800003,126.123809 331.2168,124.3742 C331.022399,123.888198 330.9252,123.450802 330.9252,123.062 C330.9252,122.673198 330.779401,122.333001 330.4878,122.0414 C330.098998,121.555398 329.588703,121.3367 328.9569,121.3853 C328.325097,121.4339 327.669003,121.603999 326.9886,121.8956 C326.308197,122.187201 325.652103,122.575998 325.0203,123.062 C324.388497,123.548002 323.878202,123.985398 323.4894,124.3742 C321.934192,126.41541 320.646305,128.918285 319.6257,131.8829 C318.605095,134.847515 317.778903,138.030783 317.1471,141.4328 C316.515297,144.834817 315.956402,148.309682 315.4704,151.8575 C314.984398,155.405318 314.498402,158.782984 314.0124,161.9906 C313.817999,162.962605 313.6722,163.861696 313.575,164.6879 C313.4778,165.514104 313.332001,166.267397 313.1376,166.9478 Z" id="Combined-Shape" fill="#525684"></path>
        </g>
    </g>
</svg>